<?xml version="1.0" encoding="utf-8"?>
<!-- Generator: Adobe Illustrator 16.0.3, SVG Export Plug-In . SVG Version: 6.00 Build 0)  -->
<!DOCTYPE svg PUBLIC "-//W3C//DTD SVG 1.1//EN" "http://www.w3.org/Graphics/SVG/1.1/DTD/svg11.dtd">
<svg version="1.1" xmlns="http://www.w3.org/2000/svg" xmlns:xlink="http://www.w3.org/1999/xlink" x="0px" y="0px"
	 width="78.333px" height="57.667px" viewBox="0 0 78.333 57.667" enable-background="new 0 0 78.333 57.667" xml:space="preserve">
<g id="Capa_9" display="none">
	<g display="inline">
		
			<path fill-rule="evenodd" clip-rule="evenodd" fill="none" stroke="#000000" stroke-width="2" stroke-linecap="round" stroke-linejoin="round" stroke-miterlimit="10" d="
			M32.448,40.925c0.261-2.196-0.479-3.81-0.836-5.677c-0.064-0.332-0.128-0.665-0.198-0.996c-0.092-0.442-0.189-0.883-0.307-1.319
			c-0.252-0.938-0.53-1.868-0.826-2.792c-0.87-2.722-0.321-5.958-0.122-8.944c0.177-2.659-0.768-3.531-3.423-3.431
			c-4.869,0.184-9.753,0.15-14.624,0.01c-2.32-0.066-3.104,0.726-3.047,3.044c0.112,4.524,0.781,9.293-1.241,13.421
			c-1.149,2.345-1.313,4.486-1.327,6.83c-0.022,3.708,2.768,5.772,6.35,4.461c1.591-0.583,3.946-1.021,5.634-1.171
			c1.648-0.147,3.857,0.219,5.485,0.52c2.563,0.473,4.8,1.838,6.943-0.469C31.326,43.961,32.187,43.121,32.448,40.925z"/>
		
			<path fill-rule="evenodd" clip-rule="evenodd" fill="none" stroke="#000000" stroke-width="2" stroke-linecap="round" stroke-linejoin="round" stroke-miterlimit="10" d="
			M9.485,30.569c4.25,0,8.506-0.119,12.75,0.041c2.974,0.112,3.044-1.574,3.049-3.791c0.005-2.209-0.305-3.755-3.05-3.396
			c-0.983,0.128-1.997,0.021-2.998,0.021c-5.824,0-6.336,0.622-5.25,6.376"/>
		
			<path fill-rule="evenodd" clip-rule="evenodd" fill="none" stroke="#000000" stroke-width="2" stroke-linecap="round" stroke-linejoin="round" stroke-miterlimit="10" d="
			M8.36,35.07c7.626,0.621,15.252,0.622,22.878,0"/>
		
			<path fill-rule="evenodd" clip-rule="evenodd" fill="none" stroke="#000000" stroke-width="2" stroke-linecap="round" stroke-linejoin="round" stroke-miterlimit="10" d="
			M39.489,19.693c0,6.501,0,13.002,0,19.502"/>
		
			<path fill-rule="evenodd" clip-rule="evenodd" fill="none" stroke="#000000" stroke-width="2" stroke-linecap="round" stroke-linejoin="round" stroke-miterlimit="10" d="
			M43.99,17.817c-0.5-1.5-0.846-3.078-1.55-4.475c-0.545-1.08-1.285-1.997-2.951-1.997c-1.666,0-2.425,0.913-2.945,1.998
			c-0.676,1.409-0.958,3.005-1.511,4.861c2.785,0.788,5.61,2.081,8.582-0.012"/>
		
			<path fill-rule="evenodd" clip-rule="evenodd" fill="none" stroke="#000000" stroke-width="2" stroke-linecap="round" stroke-linejoin="round" stroke-miterlimit="10" d="
			M41.74,19.693c0,1.625,0,3.25,0,4.875"/>
		
			<path fill-rule="evenodd" clip-rule="evenodd" fill="none" stroke="#000000" stroke-width="2" stroke-linecap="round" stroke-linejoin="round" stroke-miterlimit="10" d="
			M29.738,30.569c-1.37-0.179-2.809,0.389-4.125-0.375"/>
		
			<path fill-rule="evenodd" clip-rule="evenodd" fill="none" stroke="#000000" stroke-width="2" stroke-linecap="round" stroke-linejoin="round" stroke-miterlimit="10" d="
			M42.865,39.946c-2.25,0-4.501,0-6.751,0"/>
	</g>
	
		<path display="inline" fill-rule="evenodd" clip-rule="evenodd" fill="none" stroke="#000000" stroke-width="2" stroke-linecap="round" stroke-linejoin="round" stroke-miterlimit="10" d="
		M72.448,40.925c0.261-2.196-0.479-3.81-0.836-5.677c-0.064-0.332-0.128-0.665-0.198-0.996c-0.092-0.442-0.189-0.883-0.307-1.319
		c-0.252-0.938-0.53-1.868-0.826-2.792c-0.87-2.722-0.321-5.958-0.122-8.944c0.177-2.659-0.768-3.531-3.423-3.431
		c-4.869,0.184-9.753,0.15-14.624,0.01c-2.32-0.066-3.104,0.726-3.047,3.044c0.112,4.524,0.781,9.293-1.241,13.421
		c-1.149,2.345-1.313,4.486-1.327,6.83c-0.022,3.708,2.768,5.772,6.35,4.461c1.591-0.583,3.946-1.021,5.634-1.171
		c1.648-0.147,3.857,0.219,5.485,0.52c2.563,0.473,4.8,1.838,6.943-0.469C71.326,43.961,72.187,43.121,72.448,40.925z"/>
	
		<path display="inline" fill-rule="evenodd" clip-rule="evenodd" fill="none" stroke="#000000" stroke-width="2" stroke-linecap="round" stroke-linejoin="round" stroke-miterlimit="10" d="
		M49.485,30.569c4.25,0,8.506-0.119,12.75,0.041c2.974,0.112,3.044-1.574,3.049-3.791c0.005-2.209-0.305-3.755-3.05-3.396
		c-0.983,0.128-1.997,0.021-2.998,0.021c-5.824,0-6.336,0.622-5.25,6.376"/>
	
		<path display="inline" fill-rule="evenodd" clip-rule="evenodd" fill="none" stroke="#000000" stroke-width="2" stroke-linecap="round" stroke-linejoin="round" stroke-miterlimit="10" d="
		M48.36,35.07c7.626,0.621,15.252,0.622,22.878,0"/>
	
		<path display="inline" fill-rule="evenodd" clip-rule="evenodd" fill="none" stroke="#000000" stroke-width="2" stroke-linecap="round" stroke-linejoin="round" stroke-miterlimit="10" d="
		M69.738,30.569c-1.37-0.179-2.809,0.389-4.125-0.375"/>
</g>
<g id="Capa_3" display="none">
	<g id="XMLID_1_" display="inline">
		<path id="XMLID_2_" fill="#231F20" d="M56.91,20.574l-0.002-0.175h-0.793c-0.292-0.715-1.338-1.579-5.728-2.265
			c-3.309-0.517-7.7-0.801-12.364-0.801c-4.66,0-9.052,0.284-12.361,0.801c-4.436,0.693-5.467,1.572-5.743,2.3l-0.162,0.007
			L19.75,21.42c0,6.448,2.377,12.508,6.535,16.698c-3.286,0.888-4.95,2.114-4.95,3.645c0,3.946,11.119,4.988,16.999,4.988
			s17-1.042,17-4.988c0-1.533-1.67-2.759-4.963-3.647c0.234-0.234,0.449-0.457,0.647-0.676c1.157,0.186,2.256,0.278,3.268,0.278
			c3.067,0,5.561-0.787,7.412-2.338c2.057-1.725,3.143-4.285,3.143-7.402C64.842,23.2,60.617,21.016,56.91,20.574z M56.703,24.711
			c1.518,0.424,3.207,1.387,3.207,3.572c0,1.789-0.596,3.233-1.722,4.179c-1.083,0.906-2.601,1.343-4.518,1.328
			C55.246,31.077,56.288,27.952,56.703,24.711z M38.023,19.17c8.669,0,14.635,0.985,16.126,1.782
			c-1.491,0.796-7.457,1.781-16.126,1.781c-8.666,0-14.632-0.984-16.123-1.781C23.391,20.155,29.357,19.17,38.023,19.17z
			 M53.502,41.763c0,1.111-5.76,3.152-15.168,3.152s-15.168-2.041-15.168-3.152c0-0.45,1.272-1.392,4.765-2.164
			c3.082,2.468,6.678,3.771,10.404,3.771c3.718,0,7.309-1.304,10.393-3.773C52.228,40.368,53.502,41.313,53.502,41.763z
			 M38.334,41.534c-8.821,0-16.101-8.199-16.705-18.734c0.94,0.375,2.267,0.692,4.032,0.969c3.31,0.517,7.701,0.802,12.361,0.802
			c4.664,0,9.055-0.285,12.364-0.802c2.202-0.346,3.739-0.758,4.673-1.261C54.586,33.208,47.307,41.534,38.334,41.534z
			 M60.523,33.971c-1.858,1.557-4.667,2.177-8.141,1.804c0.05-0.07,0.099-0.138,0.147-0.208c0.492,0.045,0.899,0.068,1.271,0.068
			c0.288,0,0.567-0.011,0.841-0.028c1.913-0.13,3.5-0.712,4.72-1.734c1.169-0.98,1.924-2.313,2.228-3.907
			c0.103-0.532,0.152-1.092,0.152-1.681c0-3.754-3.263-5.03-4.868-5.431c0.008-0.137,0.014-0.275,0.019-0.412
			c0.728,0.109,1.72,0.327,2.711,0.755c2.262,0.978,3.409,2.587,3.409,4.782C63.011,30.535,62.15,32.607,60.523,33.971z"/>
	</g>
</g>
<g id="Capa_5" display="none">
	<g id="XMLID_17_" display="inline">
		<path id="XMLID_18_" fill="#231F20" d="M49.988,44h23.701c0.46,0,0.881-0.269,1.083-0.693c0.202-0.423,0.151-0.926-0.132-1.299
			L55.581,16.992c-0.229-0.3-0.579-0.475-0.951-0.475c-0.371,0-0.723,0.174-0.95,0.475l-3.621,4.751
			c-1.489-2.955-4.497-4.986-7.965-4.986c-2.901,0-5.477,1.422-7.116,3.614l-6.753-9.155c-0.227-0.31-0.584-0.49-0.963-0.49
			c-0.378,0-0.733,0.181-0.962,0.49L3.574,42.024c-0.273,0.374-0.32,0.874-0.115,1.292C3.662,43.735,4.081,44,4.538,44h31.033
			H49.988z M27.262,14.007l20.307,27.526H38.04H6.957L27.262,14.007z M48.36,23.976l-5.449,7.149l-6.405-8.681
			c1.152-1.927,3.222-3.22,5.588-3.22C45.044,19.224,47.542,21.228,48.36,23.976z M50.588,41.534l-6.172-8.37L54.63,19.757
			l16.591,21.777H50.588z"/>
	</g>
</g>
<g id="Capa_8">
	<g id="XMLID_67_">
		<path id="XMLID_77_" fill="#231F20" d="M34.665,43.683c0,2.406,1.957,4.363,4.362,4.363c2.404,0,4.36-1.958,4.36-4.363
			c0-2.403-1.956-4.361-4.36-4.361C36.622,39.322,34.665,41.28,34.665,43.683z M42.118,43.683c0,1.706-1.386,3.092-3.091,3.092
			c-1.706,0-3.092-1.386-3.092-3.092c0-1.703,1.386-3.092,3.092-3.092C40.732,40.591,42.118,41.98,42.118,43.683z"/>
		<path id="XMLID_74_" fill="#231F20" d="M39.027,12.96c-6.963,0-13.484,2.742-18.363,7.722c-0.355,0.362-0.549,0.843-0.544,1.353
			c0.005,0.509,0.208,0.985,0.571,1.339c0.358,0.353,0.831,0.545,1.332,0.545c0.007,0,0.013,0,0.02,0
			c0.509-0.005,0.985-0.208,1.341-0.571c4.156-4.243,9.711-6.578,15.643-6.578c5.931,0,11.485,2.335,15.642,6.577
			c0.361,0.369,0.843,0.572,1.361,0.572c0.501,0,0.974-0.194,1.332-0.545c0.363-0.354,0.566-0.83,0.571-1.339
			c0.005-0.509-0.188-0.99-0.544-1.353C52.509,15.703,45.989,12.96,39.027,12.96z M56.473,22.468
			c-0.242,0.238-0.661,0.233-0.897-0.01C51.178,17.97,45.301,15.5,39.027,15.5c-6.275,0-12.153,2.471-16.551,6.959
			c-0.119,0.122-0.278,0.188-0.445,0.19c-0.172,0-0.329-0.062-0.451-0.18c-0.121-0.119-0.189-0.278-0.191-0.447
			c-0.001-0.171,0.064-0.33,0.182-0.45c4.638-4.734,10.836-7.341,17.456-7.341c6.618,0,12.817,2.607,17.455,7.341
			c0.119,0.12,0.183,0.279,0.181,0.45C56.662,22.19,56.594,22.349,56.473,22.468z"/>
		<path id="XMLID_71_" fill="#231F20" d="M51.178,30.698c0.498,0,0.969-0.189,1.327-0.538c0.753-0.732,0.77-1.939,0.039-2.692
			c-3.583-3.689-8.385-5.719-13.518-5.719c-5.135,0-9.936,2.03-13.519,5.719c-0.731,0.752-0.715,1.96,0.039,2.692
			c0.753,0.731,1.96,0.713,2.693-0.039c2.858-2.942,6.69-4.563,10.787-4.563c4.096,0,7.926,1.621,10.786,4.563
			C50.174,30.494,50.659,30.698,51.178,30.698z M27.33,29.237c-0.244,0.251-0.646,0.257-0.898,0.014
			c-0.25-0.244-0.256-0.647-0.013-0.897c3.342-3.439,7.819-5.333,12.608-5.333c4.788,0,9.265,1.894,12.606,5.333
			c0.243,0.25,0.238,0.653-0.012,0.897c-0.245,0.237-0.663,0.23-0.897-0.014c-3.102-3.191-7.255-4.947-11.697-4.947
			C34.584,24.29,30.43,26.046,27.33,29.237z"/>
		<path id="XMLID_68_" fill="#231F20" d="M46.731,38.191c0.493,0,0.959-0.188,1.315-0.529c0.369-0.351,0.578-0.824,0.589-1.333
			c0.011-0.509-0.176-0.992-0.527-1.359c-2.396-2.506-5.62-3.886-9.081-3.886c-3.462,0-6.687,1.38-9.083,3.886
			c-0.351,0.367-0.538,0.85-0.526,1.359s0.221,0.982,0.588,1.333c0.356,0.341,0.823,0.529,1.316,0.529c0.012,0,0.029,0,0.043-0.002
			c0.509-0.011,0.982-0.22,1.333-0.588c1.67-1.748,3.918-2.71,6.329-2.71c2.41,0,4.658,0.962,6.327,2.71
			C45.711,37.974,46.212,38.191,46.731,38.191z M31.78,36.725c-0.116,0.122-0.275,0.192-0.444,0.195
			c-0.169,0.002-0.33-0.058-0.454-0.175c-0.122-0.116-0.192-0.275-0.196-0.444c-0.004-0.168,0.06-0.33,0.177-0.453
			c2.152-2.253,5.052-3.495,8.164-3.495c3.111,0,6.01,1.242,8.163,3.495c0.117,0.124,0.179,0.285,0.176,0.453
			c-0.003,0.169-0.074,0.328-0.196,0.444c-0.245,0.236-0.662,0.226-0.898-0.02c-1.909-2.001-4.483-3.103-7.244-3.103
			C36.264,33.622,33.692,34.724,31.78,36.725z"/>
	</g>
</g>
<g id="Capa_4" display="none">
	<g id="XMLID_9_" display="inline">
		<path id="XMLID_13_" fill="#231F20" d="M51.605,24.038c0.261-1.078,0.394-2.187,0.394-3.292c0-7.676-6.244-13.922-13.92-13.922
			c-7.678,0-13.922,6.246-13.922,13.922c0,1.105,0.132,2.214,0.395,3.292c0.371,2.257,0.883,4.079,1.519,5.415
			c1.369,2.873,7.126,12.359,9.769,16.681c-3.573,0.455-5.231,1.992-5.231,3.44c0,1.723,2.336,3.578,7.472,3.578
			c5.133,0,7.471-1.855,7.471-3.578c0-1.449-1.659-2.985-5.232-3.44c2.643-4.321,8.4-13.808,9.768-16.681
			C50.722,28.117,51.231,26.294,51.605,24.038z M43.396,49.574c-0.145,0.406-1.943,1.428-5.317,1.428
			c-3.416,0-5.216-1.045-5.323-1.415c0.097-0.357,1.563-1.234,4.336-1.409c0.033,0.052,0.057,0.093,0.07,0.114
			c0.195,0.317,0.542,0.51,0.916,0.51c0.372,0,0.718-0.193,0.914-0.51c0.013-0.021,0.037-0.062,0.071-0.114
			C41.801,48.351,43.266,49.209,43.396,49.574z M28.01,28.529c-0.544-1.143-1.009-2.832-1.343-4.881
			c-0.006-0.027-0.011-0.055-0.018-0.082c-0.228-0.924-0.343-1.873-0.343-2.82c0-6.491,5.281-11.771,11.773-11.771
			c6.49,0,11.771,5.28,11.771,11.771c0,0.947-0.115,1.896-0.343,2.82c-0.007,0.027-0.011,0.055-0.017,0.082
			c-0.334,2.049-0.801,3.738-1.345,4.881c-1.382,2.9-7.685,13.254-10.066,17.144C35.695,41.783,29.394,31.43,28.01,28.529z"/>
		<path id="XMLID_10_" fill="#231F20" d="M38.079,12.874c-4.121,0-7.472,3.351-7.472,7.471c0,4.119,3.351,7.471,7.472,7.471
			c4.119,0,7.471-3.352,7.471-7.471C45.55,16.225,42.198,12.874,38.079,12.874z M32.756,20.345c0-2.935,2.387-5.322,5.323-5.322
			c2.934,0,5.32,2.388,5.32,5.322c0,2.934-2.387,5.321-5.32,5.321C35.144,25.666,32.756,23.279,32.756,20.345z"/>
	</g>
</g>
<g id="Capa_6" display="none">
	<g id="XMLID_23_" display="inline">
		<path id="XMLID_33_" fill="#231F20" d="M24.554,43.522h32.455c0.594,0,1.076-0.481,1.076-1.075V19.566
			c0-0.595-0.482-1.076-1.076-1.076h-8.705v-3.549c0-0.594-0.482-1.074-1.076-1.074h-8.887c-0.594,0-1.074,0.48-1.074,1.074v3.549
			h-3.902v-0.412c0-0.595-0.483-1.075-1.076-1.075h-3.01c-0.594,0-1.074,0.48-1.074,1.075v0.412h-3.65
			c-0.594,0-1.076,0.481-1.076,1.076v22.881C23.478,43.041,23.96,43.522,24.554,43.522z M39.417,16.016h6.736v2.474h-6.736V16.016z
			 M25.627,20.64h12.713h8.887h8.707v20.731H25.627V20.64z"/>
		<path id="XMLID_30_" fill="#231F20" d="M45.558,22.802c-4.573,0-8.291,3.72-8.291,8.291c0,4.572,3.718,8.291,8.291,8.291
			c4.57,0,8.291-3.719,8.291-8.291C53.848,26.522,50.127,22.802,45.558,22.802z M45.558,37.234c-3.387,0-6.141-2.755-6.141-6.141
			c0-3.387,2.754-6.141,6.141-6.141c3.385,0,6.14,2.754,6.14,6.141C51.698,34.479,48.942,37.234,45.558,37.234z"/>
		<path id="XMLID_27_" fill="#231F20" d="M45.558,26.672c-2.439,0-4.422,1.983-4.422,4.421s1.983,4.42,4.422,4.42
			c2.438,0,4.42-1.982,4.42-4.42S47.995,26.672,45.558,26.672z M45.558,33.364c-1.252,0-2.272-1.019-2.272-2.271
			s1.02-2.271,2.272-2.271s2.269,1.019,2.269,2.271S46.81,33.364,45.558,33.364z"/>
		<path id="XMLID_24_" fill="#231F20" d="M34.009,21.742h-6.021c-0.591,0-1.074,0.48-1.074,1.074v3.633
			c0,0.594,0.483,1.075,1.074,1.075h6.021c0.594,0,1.074-0.48,1.074-1.075v-3.633C35.083,22.222,34.603,21.742,34.009,21.742z
			 M32.933,25.373h-3.869v-1.48h3.869V25.373z"/>
	</g>
</g>
<g id="Capa_7" display="none">
	<g id="XMLID_37_" display="inline">
		<path id="XMLID_66_" fill="#231F20" d="M30.131,20.859h17.787c0.336,0,0.607-0.273,0.607-0.609c0-0.337-0.271-0.61-0.607-0.61
			H30.131c-0.336,0-0.609,0.273-0.609,0.61C29.522,20.586,29.795,20.859,30.131,20.859z"/>
		<path id="XMLID_65_" fill="#231F20" d="M48.526,25.607c0-0.336-0.271-0.609-0.607-0.609H30.131c-0.336,0-0.609,0.273-0.609,0.609
			c0,0.336,0.273,0.609,0.609,0.609h17.787C48.254,26.217,48.526,25.943,48.526,25.607z"/>
		<path id="XMLID_56_" fill="#231F20" d="M61.801,24.107l-7.508-5.5v-1.326c0-2.652-2.238-4.81-4.988-4.81h-3.389l-6.063-4.44
			c-0.322-0.235-0.756-0.235-1.076,0l-6.063,4.44h-3.389c-2.752,0-4.988,2.157-4.988,4.81v1.326l-7.51,5.5
			c-0.234,0.171-0.373,0.443-0.375,0.734c0,0.051,0.01,0.102,0.018,0.151c-0.006,0.042-0.018,0.082-0.018,0.124v22.752
			c0,0.135,0.037,0.26,0.092,0.377c-0.094,0.208-0.119,0.443-0.041,0.668c0.125,0.37,0.473,0.619,0.861,0.619h43.898
			c0.391,0,0.738-0.25,0.863-0.621c0.076-0.223,0.051-0.459-0.043-0.666c0.055-0.117,0.092-0.242,0.092-0.377V25.117
			c0-0.041-0.012-0.08-0.018-0.121c0.01-0.054,0.018-0.107,0.018-0.162C62.172,24.546,62.034,24.277,61.801,24.107z M54.293,20.872
			l5.451,3.992l-5.256,4.056l-0.195,0.142V20.872z M39.315,9.901l3.51,2.57h-7.02L39.315,9.901z M26.161,17.281
			c0-1.644,1.42-2.981,3.166-2.981h19.979c1.744,0,3.164,1.338,3.164,2.981V30.39l-7.176,5.223c-0.121,0.028-0.24,0.074-0.346,0.151
			l-5.576,4.225l-5.842-4.235v-0.001l0,0l-7.369-5.362V17.281z M24.338,20.871v8.018l-5.434-4.038L24.338,20.871z M18.278,26.911
			l13.166,9.583l-13.166,9.582V26.911z M20.036,47.705l12.979-10.07l5.834,4.232c0.324,0.234,0.764,0.23,1.084-0.011l5.563-4.213
			l13.084,10.063H20.036z M60.352,46.076l-13.164-9.582l13.164-9.583V46.076z"/>
	</g>
</g>
</svg>
