<?xml version="1.0" encoding="utf-8"?>
<!-- Generator: Adobe Illustrator 16.0.3, SVG Export Plug-In . SVG Version: 6.00 Build 0)  -->
<!DOCTYPE svg PUBLIC "-//W3C//DTD SVG 1.1//EN" "http://www.w3.org/Graphics/SVG/1.1/DTD/svg11.dtd">
<svg version="1.1" xmlns="http://www.w3.org/2000/svg" xmlns:xlink="http://www.w3.org/1999/xlink" x="0px" y="0px"
	 width="12.667px" height="11.292px" viewBox="0 0 12.667 11.292" enable-background="new 0 0 12.667 11.292" xml:space="preserve">
<g id="doble" display="none">
	<g display="inline">
		
			<path fill-rule="evenodd" clip-rule="evenodd" fill="none" stroke="#000000" stroke-width="2" stroke-linecap="round" stroke-linejoin="round" stroke-miterlimit="10" d="
			M-0.844,22.508c0.261-2.196-0.479-3.81-0.836-5.677c-0.064-0.332-0.128-0.665-0.198-0.996c-0.092-0.442-0.189-0.883-0.307-1.319
			c-0.252-0.938-0.53-1.868-0.826-2.792c-0.87-2.722-0.321-5.958-0.122-8.944C-2.956,0.121-3.9-0.751-6.556-0.651
			c-4.869,0.184-9.753,0.15-14.624,0.01c-2.32-0.066-3.104,0.726-3.047,3.044c0.112,4.524,0.781,9.293-1.241,13.421
			c-1.149,2.345-1.313,4.486-1.327,6.83c-0.022,3.708,2.768,5.772,6.35,4.461c1.591-0.583,3.946-1.021,5.634-1.171
			c1.648-0.147,3.857,0.219,5.485,0.52c2.563,0.473,4.8,1.838,6.943-0.469C-1.965,25.544-1.104,24.704-0.844,22.508z"/>
		
			<path fill-rule="evenodd" clip-rule="evenodd" fill="none" stroke="#000000" stroke-width="2" stroke-linecap="round" stroke-linejoin="round" stroke-miterlimit="10" d="
			M-23.807,12.153c4.25,0,8.506-0.119,12.75,0.041c2.974,0.112,3.044-1.574,3.049-3.791c0.005-2.209-0.305-3.755-3.05-3.396
			c-0.983,0.128-1.997,0.021-2.998,0.021c-5.824,0-6.336,0.622-5.25,6.376"/>
		
			<path fill-rule="evenodd" clip-rule="evenodd" fill="none" stroke="#000000" stroke-width="2" stroke-linecap="round" stroke-linejoin="round" stroke-miterlimit="10" d="
			M-24.932,16.653c7.626,0.621,15.252,0.622,22.878,0"/>
		
			<path fill-rule="evenodd" clip-rule="evenodd" fill="none" stroke="#000000" stroke-width="2" stroke-linecap="round" stroke-linejoin="round" stroke-miterlimit="10" d="
			M6.197,1.276c0,6.501,0,13.002,0,19.502"/>
		
			<path fill-rule="evenodd" clip-rule="evenodd" fill="none" stroke="#000000" stroke-width="2" stroke-linecap="round" stroke-linejoin="round" stroke-miterlimit="10" d="
			M10.698-0.599c-0.5-1.5-0.846-3.078-1.55-4.475c-0.545-1.08-1.285-1.997-2.951-1.997c-1.666,0-2.425,0.913-2.945,1.998
			C2.576-3.665,2.294-2.068,1.741-0.212c2.785,0.788,5.61,2.081,8.582-0.012"/>
		
			<path fill-rule="evenodd" clip-rule="evenodd" fill="none" stroke="#000000" stroke-width="2" stroke-linecap="round" stroke-linejoin="round" stroke-miterlimit="10" d="
			M8.448,1.276c0,1.625,0,3.25,0,4.875"/>
		
			<path fill-rule="evenodd" clip-rule="evenodd" fill="none" stroke="#000000" stroke-width="2" stroke-linecap="round" stroke-linejoin="round" stroke-miterlimit="10" d="
			M-3.554,12.153c-1.37-0.179-2.809,0.389-4.125-0.375"/>
		
			<path fill-rule="evenodd" clip-rule="evenodd" fill="none" stroke="#000000" stroke-width="2" stroke-linecap="round" stroke-linejoin="round" stroke-miterlimit="10" d="
			M9.573,21.529c-2.25,0-4.501,0-6.751,0"/>
	</g>
	
		<path display="inline" fill-rule="evenodd" clip-rule="evenodd" fill="none" stroke="#000000" stroke-width="2" stroke-linecap="round" stroke-linejoin="round" stroke-miterlimit="10" d="
		M39.156,22.508c0.261-2.196-0.479-3.81-0.836-5.677c-0.064-0.332-0.128-0.665-0.198-0.996c-0.092-0.442-0.189-0.883-0.307-1.319
		c-0.252-0.938-0.53-1.868-0.826-2.792c-0.87-2.722-0.321-5.958-0.122-8.944c0.177-2.659-0.768-3.531-3.423-3.431
		c-4.869,0.184-9.753,0.15-14.624,0.01c-2.32-0.066-3.104,0.726-3.047,3.044c0.112,4.524,0.781,9.293-1.241,13.421
		c-1.149,2.345-1.313,4.486-1.327,6.83c-0.022,3.708,2.768,5.772,6.35,4.461c1.591-0.583,3.946-1.021,5.634-1.171
		c1.648-0.147,3.857,0.219,5.485,0.52c2.563,0.473,4.8,1.838,6.943-0.469C38.035,25.544,38.896,24.704,39.156,22.508z"/>
	
		<path display="inline" fill-rule="evenodd" clip-rule="evenodd" fill="none" stroke="#000000" stroke-width="2" stroke-linecap="round" stroke-linejoin="round" stroke-miterlimit="10" d="
		M16.193,12.153c4.25,0,8.506-0.119,12.75,0.041c2.974,0.112,3.044-1.574,3.049-3.791c0.005-2.209-0.305-3.755-3.05-3.396
		c-0.983,0.128-1.997,0.021-2.998,0.021c-5.824,0-6.336,0.622-5.25,6.376"/>
	
		<path display="inline" fill-rule="evenodd" clip-rule="evenodd" fill="none" stroke="#000000" stroke-width="2" stroke-linecap="round" stroke-linejoin="round" stroke-miterlimit="10" d="
		M15.068,16.653c7.626,0.621,15.252,0.622,22.878,0"/>
	
		<path display="inline" fill-rule="evenodd" clip-rule="evenodd" fill="none" stroke="#000000" stroke-width="2" stroke-linecap="round" stroke-linejoin="round" stroke-miterlimit="10" d="
		M36.446,12.153c-1.37-0.179-2.809,0.389-4.125-0.375"/>
</g>
<g id="desayuno" display="none">
	<g id="XMLID_1_" display="inline">
		<path id="XMLID_2_" fill="#231F20" d="M23.618,2.158l-0.002-0.175h-0.793c-0.292-0.715-1.338-1.579-5.728-2.265
			c-3.309-0.517-7.7-0.801-12.364-0.801c-4.66,0-9.052,0.284-12.361,0.801c-4.436,0.693-5.467,1.572-5.743,2.3l-0.162,0.007
			l-0.006,0.979c0,6.448,2.376,12.508,6.535,16.698c-3.286,0.888-4.95,2.114-4.95,3.645c0,3.946,11.119,4.988,16.999,4.988
			s17-1.042,17-4.988c0-1.533-1.67-2.759-4.963-3.647c0.234-0.234,0.449-0.457,0.647-0.676c1.157,0.186,2.256,0.278,3.268,0.278
			c3.067,0,5.561-0.787,7.412-2.338c2.057-1.725,3.143-4.285,3.143-7.402C31.55,4.783,27.325,2.6,23.618,2.158z M23.412,6.295
			c1.518,0.424,3.207,1.387,3.207,3.572c0,1.789-0.596,3.233-1.722,4.179c-1.083,0.906-2.601,1.343-4.518,1.329
			C21.954,12.661,22.997,9.536,23.412,6.295z M4.731,0.753c8.669,0,14.635,0.985,16.126,1.782C19.366,3.332,13.4,4.316,4.731,4.316
			c-8.666,0-14.632-0.984-16.123-1.781C-9.9,1.739-3.935,0.753,4.731,0.753z M20.211,23.346c0,1.111-5.76,3.152-15.168,3.152
			s-15.168-2.041-15.168-3.152c0-0.45,1.272-1.392,4.765-2.164c3.082,2.468,6.678,3.771,10.404,3.771
			c3.718,0,7.309-1.304,10.393-3.773C18.937,21.951,20.211,22.896,20.211,23.346z M5.042,23.117
			c-8.821,0-16.101-8.199-16.705-18.734c0.94,0.375,2.267,0.692,4.032,0.969c3.31,0.517,7.701,0.802,12.361,0.802
			c4.664,0,9.055-0.285,12.364-0.802c2.202-0.346,3.739-0.758,4.673-1.261C21.295,14.792,14.016,23.117,5.042,23.117z
			 M27.231,15.554c-1.857,1.557-4.667,2.177-8.141,1.804c0.05-0.07,0.099-0.138,0.147-0.208c0.492,0.045,0.899,0.068,1.271,0.068
			c0.288,0,0.567-0.01,0.841-0.028c1.913-0.13,3.5-0.712,4.72-1.734c1.169-0.98,1.924-2.313,2.228-3.907
			c0.103-0.532,0.152-1.092,0.152-1.681c0-3.754-3.263-5.03-4.868-5.431c0.008-0.137,0.014-0.275,0.019-0.412
			c0.728,0.109,1.72,0.327,2.711,0.755c2.262,0.978,3.409,2.587,3.409,4.782C29.72,12.118,28.858,14.19,27.231,15.554z"/>
	</g>
</g>
<g id="vistas" display="none">
	<g id="XMLID_17_" display="inline">
		<path id="XMLID_18_" fill="#231F20" d="M16.696,25.583h23.701c0.46,0,0.881-0.269,1.083-0.693c0.202-0.423,0.15-0.926-0.133-1.299
			L22.289-1.424c-0.229-0.3-0.579-0.475-0.951-0.475c-0.371,0-0.723,0.174-0.95,0.475l-3.621,4.751
			c-1.489-2.955-4.497-4.986-7.965-4.986c-2.901,0-5.477,1.422-7.116,3.614l-6.753-9.155c-0.228-0.31-0.584-0.49-0.963-0.49
			c-0.378,0-0.733,0.181-0.962,0.49l-22.726,30.807c-0.273,0.374-0.32,0.874-0.115,1.292c0.202,0.418,0.621,0.683,1.078,0.683H2.279
			H16.696z M-6.029-4.409l20.307,27.526H4.748h-31.083L-6.029-4.409z M15.068,5.559l-5.449,7.149L3.214,4.027
			c1.152-1.927,3.222-3.22,5.588-3.22C11.752,0.807,14.25,2.812,15.068,5.559z M17.297,23.117l-6.172-8.37L21.338,1.34L37.93,23.117
			H17.297z"/>
	</g>
</g>
<g id="wifi" display="none">
	<g id="XMLID_67_" display="inline">
		<path id="XMLID_77_" fill="#231F20" d="M1.373,25.267c0,2.406,1.957,4.363,4.362,4.363c2.404,0,4.36-1.958,4.36-4.363
			c0-2.403-1.956-4.361-4.36-4.361C3.33,20.906,1.373,22.863,1.373,25.267z M8.827,25.267c0,1.706-1.386,3.092-3.091,3.092
			c-1.706,0-3.092-1.386-3.092-3.092c0-1.703,1.386-3.092,3.092-3.092C7.44,22.175,8.827,23.563,8.827,25.267z"/>
		<path id="XMLID_74_" fill="#231F20" d="M5.735-5.456c-6.963,0-13.484,2.742-18.363,7.722c-0.355,0.362-0.549,0.843-0.544,1.353
			s0.208,0.985,0.571,1.339c0.358,0.353,0.831,0.545,1.332,0.545c0.007,0,0.013,0,0.02,0c0.509-0.006,0.985-0.209,1.341-0.571
			c4.156-4.243,9.711-6.578,15.643-6.578c5.931,0,11.485,2.335,15.642,6.576c0.361,0.369,0.844,0.573,1.361,0.573
			c0.501,0,0.974-0.194,1.332-0.545c0.363-0.354,0.566-0.83,0.571-1.339c0.005-0.509-0.188-0.99-0.544-1.353
			C19.218-2.714,12.697-5.456,5.735-5.456z M23.182,4.052c-0.242,0.238-0.661,0.233-0.897-0.009
			C17.887-0.446,12.01-2.917,5.735-2.917c-6.275,0-12.153,2.47-16.551,6.959c-0.119,0.122-0.278,0.188-0.445,0.189
			c-0.172,0-0.329-0.062-0.451-0.18c-0.121-0.119-0.189-0.278-0.191-0.446c-0.001-0.171,0.064-0.331,0.182-0.451
			c4.638-4.734,10.836-7.34,17.456-7.34c6.618,0,12.817,2.606,17.455,7.34c0.119,0.12,0.183,0.279,0.181,0.451
			C23.37,3.773,23.302,3.933,23.182,4.052z"/>
		<path id="XMLID_71_" fill="#231F20" d="M17.887,12.282c0.498,0,0.97-0.189,1.327-0.538c0.753-0.732,0.77-1.939,0.039-2.692
			C15.67,5.363,10.868,3.333,5.735,3.333c-5.135,0-9.936,2.03-13.519,5.719c-0.731,0.752-0.715,1.96,0.039,2.692
			c0.753,0.731,1.96,0.713,2.693-0.039c2.858-2.942,6.69-4.563,10.787-4.563c4.096,0,7.926,1.621,10.786,4.563
			C16.883,12.078,17.367,12.282,17.887,12.282z M-5.962,10.82c-0.244,0.251-0.646,0.257-0.898,0.014
			c-0.25-0.245-0.256-0.648-0.013-0.898c3.342-3.439,7.819-5.333,12.608-5.333c4.787,0,9.265,1.894,12.606,5.333
			c0.243,0.25,0.238,0.653-0.012,0.898c-0.245,0.237-0.663,0.23-0.897-0.014c-3.102-3.191-7.256-4.947-11.697-4.947
			C1.292,5.874-2.861,7.629-5.962,10.82z"/>
		<path id="XMLID_68_" fill="#231F20" d="M13.439,19.774c0.492,0,0.959-0.188,1.315-0.529c0.369-0.35,0.578-0.824,0.589-1.333
			c0.011-0.509-0.176-0.992-0.527-1.359c-2.396-2.506-5.62-3.886-9.081-3.886c-3.463,0-6.688,1.38-9.083,3.886
			c-0.351,0.367-0.538,0.85-0.526,1.359s0.221,0.983,0.588,1.333c0.356,0.341,0.823,0.529,1.316,0.529c0.012,0,0.029,0,0.043-0.002
			c0.509-0.011,0.982-0.22,1.333-0.588c1.67-1.748,3.918-2.71,6.329-2.71c2.41,0,4.658,0.962,6.327,2.71
			C12.42,19.558,12.921,19.774,13.439,19.774z M-1.512,18.308c-0.116,0.122-0.275,0.192-0.444,0.195
			c-0.169,0.002-0.329-0.058-0.453-0.175c-0.122-0.116-0.192-0.275-0.196-0.444c-0.004-0.168,0.06-0.33,0.177-0.453
			c2.152-2.253,5.052-3.495,8.164-3.495c3.111,0,6.01,1.242,8.163,3.495c0.117,0.124,0.179,0.285,0.176,0.453
			c-0.003,0.169-0.074,0.328-0.196,0.444c-0.245,0.236-0.662,0.226-0.898-0.02c-1.909-2.001-4.483-3.103-7.244-3.103
			C2.973,15.205,0.4,16.307-1.512,18.308z"/>
	</g>
</g>
<g id="camera">
	<g id="XMLID_23_">
		<path id="XMLID_33_" fill="#231F20" d="M0.87,10.794h10.827c0.198,0,0.359-0.161,0.359-0.359V2.803c0-0.199-0.161-0.36-0.359-0.36
			H8.792V1.26c0-0.198-0.161-0.358-0.359-0.358H5.469c-0.197,0-0.357,0.16-0.357,0.358v1.184H3.809V2.307
			c0-0.198-0.161-0.359-0.359-0.359H2.446c-0.198,0-0.358,0.161-0.358,0.359v0.137H0.87c-0.198,0-0.358,0.161-0.358,0.36v7.632
			C0.511,10.633,0.671,10.794,0.87,10.794z M5.828,1.619h2.247v0.825H5.828V1.619z M1.229,3.161h4.24h2.965h2.904v6.916H1.229V3.161
			z"/>
		<path id="XMLID_30_" fill="#231F20" d="M7.877,3.883c-1.525,0-2.766,1.241-2.766,2.766s1.24,2.765,2.766,2.765
			c1.524,0,2.765-1.24,2.765-2.765S9.401,3.883,7.877,3.883z M7.877,8.697c-1.13,0-2.049-0.92-2.049-2.048
			c0-1.13,0.919-2.049,2.049-2.049c1.129,0,2.048,0.918,2.048,2.049C9.925,7.777,9.006,8.697,7.877,8.697z"/>
		<path id="XMLID_27_" fill="#231F20" d="M7.877,5.174c-0.814,0-1.476,0.661-1.476,1.475c0,0.813,0.661,1.474,1.476,1.474
			c0.813,0,1.474-0.661,1.474-1.474C9.351,5.835,8.689,5.174,7.877,5.174z M7.877,7.405c-0.418,0-0.758-0.339-0.758-0.757
			c0-0.418,0.34-0.758,0.758-0.758c0.417,0,0.757,0.34,0.757,0.758C8.634,7.066,8.294,7.405,7.877,7.405z"/>
		<path id="XMLID_24_" fill="#231F20" d="M4.024,3.528h-2.01c-0.196,0-0.358,0.161-0.358,0.358v1.213
			c0,0.198,0.162,0.358,0.358,0.358h2.01c0.198,0,0.358-0.16,0.358-0.358V3.886C4.383,3.689,4.223,3.528,4.024,3.528z M3.665,4.74
			h-1.29V4.246h1.29V4.74z"/>
	</g>
</g>
<g id="Capa_4_copia" display="none">
	<g id="XMLID_80_" display="inline">
		<path id="XMLID_84_" fill="#231F20" stroke="#000000" stroke-width="0.25" stroke-miterlimit="10" d="M10.77,2.59
			c0.087-0.308,0.129-0.625,0.129-0.941c0-2.194-2.05-3.981-4.568-3.981c-2.52,0-4.569,1.787-4.569,3.981
			c0,0.316,0.043,0.634,0.13,0.941C2.012,3.235,2.18,3.756,2.39,4.139C2.84,4.96,4.727,7.673,5.596,8.908
			c-1.174,0.131-1.719,0.57-1.719,0.985c0,0.492,0.769,1.023,2.454,1.023c1.684,0,2.452-0.531,2.452-1.023
			c0-0.415-0.544-0.854-1.716-0.985c0.865-1.235,2.756-3.948,3.205-4.769C10.478,3.756,10.646,3.235,10.77,2.59z M8.076,9.893
			c-0.047,0.115-0.639,0.408-1.746,0.408c-1.121,0-1.712-0.299-1.747-0.405c0.032-0.102,0.513-0.353,1.422-0.403
			c0.011,0.015,0.02,0.026,0.024,0.033c0.063,0.091,0.178,0.146,0.3,0.146s0.236-0.054,0.3-0.146
			c0.004-0.006,0.012-0.018,0.024-0.033C7.552,9.543,8.033,9.788,8.076,9.893z M3.026,3.874c-0.179-0.327-0.332-0.811-0.44-1.396
			C2.582,2.47,2.582,2.463,2.578,2.456C2.505,2.191,2.466,1.919,2.466,1.649c0-1.856,1.733-3.367,3.865-3.367
			c2.13,0,3.864,1.51,3.864,3.367c0,0.271-0.04,0.542-0.114,0.807c-0.003,0.007-0.004,0.014-0.005,0.021
			c-0.108,0.586-0.263,1.07-0.44,1.396C9.182,4.703,7.112,7.665,6.331,8.776C5.549,7.665,3.479,4.704,3.026,3.874z"/>
		<path id="XMLID_81_" fill="#231F20" stroke="#000000" stroke-width="0.25" stroke-miterlimit="10" d="M6.331-0.602
			c-1.353,0-2.454,0.958-2.454,2.135c0,1.179,1.102,2.138,2.454,2.138c1.351,0,2.452-0.958,2.452-2.138
			C8.783,0.356,7.682-0.602,6.331-0.602z M4.584,1.534c0-0.838,0.784-1.522,1.747-1.522c0.964,0,1.747,0.684,1.747,1.522
			c0,0.84-0.783,1.522-1.747,1.522C5.368,3.056,4.584,2.374,4.584,1.534z"/>
	</g>
</g>
<g id="cactus1" display="none">
	<g display="inline">
		
			<path fill-rule="evenodd" clip-rule="evenodd" fill="none" stroke="#000000" stroke-width="0.5" stroke-linecap="round" stroke-linejoin="round" stroke-miterlimit="10" d="
			M1.042,7.437c0.32,2.113,0.64,4.228,0.961,6.357c2.709,0,5.402,0,8.113,0c0.144-0.969,0.281-1.958,0.438-2.944
			c0.152-0.965,0.326-1.927,0.483-2.891c0.028-0.172,0.025-0.348,0.037-0.522"/>
		
			<path fill-rule="evenodd" clip-rule="evenodd" fill="none" stroke="#000000" stroke-width="0.5" stroke-linecap="round" stroke-linejoin="round" stroke-miterlimit="10" d="
			M5.571-4.825C5.474-4.464,5.229-4.173,5.113-3.816C4.852-3.01,4.729-2.188,4.648-1.344C4.573-0.558,4.63,0.217,4.678,0.991
			C4.72,1.655,4.834,2.318,4.924,2.98C5.03,3.764,5.261,4.523,5.327,5.312"/>
		
			<path fill-rule="evenodd" clip-rule="evenodd" fill="none" stroke="#000000" stroke-width="0.5" stroke-linecap="round" stroke-linejoin="round" stroke-miterlimit="10" d="
			M5.814-4.825c0,3.378,0,6.757,0,10.137"/>
		
			<path fill-rule="evenodd" clip-rule="evenodd" fill="none" stroke="#000000" stroke-width="0.5" stroke-linecap="round" stroke-linejoin="round" stroke-miterlimit="10" d="
			M6.093-4.825c0.115,0.487,0.413,0.897,0.537,1.39c0.168,0.669,0.297,1.34,0.328,2.024C6.985-0.786,7.009-0.16,6.973,0.47
			c-0.05,0.877-0.148,1.745-0.275,2.614c-0.11,0.748-0.276,1.483-0.396,2.228"/>
		
			<path fill-rule="evenodd" clip-rule="evenodd" fill="none" stroke="#000000" stroke-width="0.5" stroke-linecap="round" stroke-linejoin="round" stroke-miterlimit="10" d="
			M11.039,7.366c-0.111-0.056-0.231-0.034-0.348-0.034C7.603,7.331,4.514,7.332,1.426,7.332c-0.477,0-0.953,0-1.445,0
			c0-0.662,0-1.289,0-1.951c4.058,0,8.099,0,12.156,0c0,0.662,0,1.289,0,1.92c-0.359,0.099-0.727-0.064-1.063,0.1"/>
		
			<path fill-rule="evenodd" clip-rule="evenodd" fill="none" stroke="#000000" stroke-width="0.5" stroke-linecap="round" stroke-linejoin="round" stroke-miterlimit="10" d="
			M0.172-0.436C0.919,0.858,2.209,1.338,3.517,1.79C3.589,1.815,3.679,1.793,3.76,1.793"/>
		
			<path fill-rule="evenodd" clip-rule="evenodd" fill="none" stroke="#000000" stroke-width="0.5" stroke-linecap="round" stroke-linejoin="round" stroke-miterlimit="10" d="
			M7.173,5.312c0.129-0.676,0.32-1.339,0.418-2.021c0.082-0.569,0.17-1.137,0.24-1.706C7.858,1.365,7.904,1.188,8.11,1.057
			c0.382-0.24,0.731-0.533,1.122-0.755c0.423-0.24,0.882-0.396,1.389-0.287c0.535,0.114,0.67,0.472,0.349,0.908
			c-0.539,0.731-1.34,1.072-2.129,1.42C8.488,2.5,8.132,2.679,7.73,2.699"/>
		
			<path fill-rule="evenodd" clip-rule="evenodd" fill="none" stroke="#000000" stroke-width="0.5" stroke-linecap="round" stroke-linejoin="round" stroke-miterlimit="10" d="
			M0.381-0.576C1.426,0.051,2.47,0.679,3.517,1.303C3.564,1.333,3.632,1.329,3.689,1.34"/>
		
			<path fill-rule="evenodd" clip-rule="evenodd" fill="none" stroke="#000000" stroke-width="0.5" stroke-linecap="round" stroke-linejoin="round" stroke-miterlimit="10" d="
			M11.074,0.469c-0.64-0.108-1.195,0.151-1.74,0.422C8.913,1.101,8.517,1.359,8.152,1.659c-0.092,0.077-0.174,0.108-0.283,0.1"/>
		
			<path fill-rule="evenodd" clip-rule="evenodd" fill="none" stroke="#000000" stroke-width="0.5" stroke-linecap="round" stroke-linejoin="round" stroke-miterlimit="10" d="
			M10.935,0.609c-0.545,0.313-1.091,0.627-1.637,0.94C8.869,1.795,8.414,1.993,8.007,2.277C7.954,2.314,7.869,2.304,7.8,2.315"/>
		
			<path fill-rule="evenodd" clip-rule="evenodd" fill="none" stroke="#000000" stroke-width="0.5" stroke-linecap="round" stroke-linejoin="round" stroke-miterlimit="10" d="
			M0.52-0.854c0.549,0.178,1.125,0.245,1.645,0.545c0.454,0.263,0.857,0.585,1.279,0.886C3.502,0.619,3.549,0.654,3.62,0.644"/>
		
			<path fill-rule="evenodd" clip-rule="evenodd" fill="none" stroke="#000000" stroke-width="0.5" stroke-linecap="round" stroke-linejoin="round" stroke-miterlimit="10" d="
			M11.145,0.469c0.381,0.271,0.42,0.657,0.104,1.011c-0.396,0.443-0.896,0.725-1.426,0.981C9.181,2.772,8.51,3,7.834,3.219
			C7.781,3.236,7.719,3.221,7.66,3.221"/>
		
			<path fill-rule="evenodd" clip-rule="evenodd" fill="none" stroke="#000000" stroke-width="0.5" stroke-linecap="round" stroke-linejoin="round" stroke-miterlimit="10" d="
			M7.974,1.131C7.817,0.841,7.96,0.546,7.983,0.261c0.1-1.197,0.054-2.394-0.243-3.547C7.583-3.898,7.259-4.563,6.576-4.775
			C5.66-5.06,4.72-4.968,4.14-3.921C3.801-3.311,3.687-2.645,3.625-1.968C3.535-1.002,3.61-0.042,3.713,0.923
			c0.103,0.974,0.262,1.935,0.466,2.89C4.286,4.314,4.41,4.813,4.526,5.312"/>
		
			<path fill-rule="evenodd" clip-rule="evenodd" fill="none" stroke="#000000" stroke-width="0.5" stroke-linecap="round" stroke-linejoin="round" stroke-miterlimit="10" d="
			M3.794,2.351C2.563,2.072,1.402,1.63,0.419,0.813c-0.325-0.27-0.602-0.634-0.408-1.07C0.239-0.772,0.6-1.193,1.252-1.205
			C2.031-1.22,2.64-0.827,3.235-0.399c0.1,0.072,0.174,0.179,0.315,0.172"/>
		
			<path fill-rule="evenodd" clip-rule="evenodd" fill="none" stroke="#000000" stroke-width="0.5" stroke-linecap="round" stroke-linejoin="round" stroke-miterlimit="10" d="
			M4.352-4.407C4.199-4.5,4.083-4.678,3.864-4.616"/>
		
			<path fill-rule="evenodd" clip-rule="evenodd" fill="none" stroke="#000000" stroke-width="0.5" stroke-linecap="round" stroke-linejoin="round" stroke-miterlimit="10" d="
			M0.938-1.586c0.188,0.051,0.083,0.249,0.174,0.349"/>
		
			<path fill-rule="evenodd" clip-rule="evenodd" fill="none" stroke="#000000" stroke-width="0.5" stroke-linecap="round" stroke-linejoin="round" stroke-miterlimit="10" d="
			M10.308-0.471c0,0.14,0,0.279,0,0.418"/>
		
			<path fill-rule="evenodd" clip-rule="evenodd" fill="none" stroke="#000000" stroke-width="0.5" stroke-linecap="round" stroke-linejoin="round" stroke-miterlimit="10" d="
			M8.148,3.187C8.16,3.314,8.172,3.442,8.183,3.569"/>
		
			<path fill-rule="evenodd" clip-rule="evenodd" fill="none" stroke="#000000" stroke-width="0.5" stroke-linecap="round" stroke-linejoin="round" stroke-miterlimit="10" d="
			M9.193-0.192C9.183-0.044,9.314,0.053,9.333,0.191"/>
		
			<path fill-rule="evenodd" clip-rule="evenodd" fill="none" stroke="#000000" stroke-width="0.5" stroke-linecap="round" stroke-linejoin="round" stroke-miterlimit="10" d="
			M10.517,2.246c0.116,0.063,0.091,0.249,0.244,0.279"/>
	</g>
	
		<path display="inline" fill-rule="evenodd" clip-rule="evenodd" fill="none" stroke="#000000" stroke-width="2" stroke-linecap="round" stroke-linejoin="round" stroke-miterlimit="10" d="
		M546.287,619.619c1.752,11.023,3.48,22.055,5.188,33.082c1.52,9.813,3.277,19.605,4.363,29.486c0.193,1.76,0.736,2.502,2.535,2.5
		c26.66-0.025,53.32-0.016,79.98-0.031c0.119,0,0.236-0.223,0.717-0.703c2.09-14.063,4.133-28.551,6.438-42.998
		c1.133-7.102,2.621-14.146,3.154-21.336"/>
	
		<path display="inline" fill-rule="evenodd" clip-rule="evenodd" fill="none" stroke="#000000" stroke-width="2" stroke-linecap="round" stroke-linejoin="round" stroke-miterlimit="10" d="
		M616.67,597.936c1.146,1.102,2.582,0.693,3.91,0.697c11.73,0.025,23.461,0.014,35.191,0.014c1.197,0,2.393,0,3.732,0
		c0,6.754,0,13.152,0,19.906c-4.912,0-9.654,0-14.396,0c-31.756,0-63.51,0-95.266,0c-3.91,0-7.822-0.051-11.73,0.023
		c-1.82,0.033-2.896-0.408-2.867-2.512c0.07-4.975,0.084-9.953-0.004-14.928c-0.043-2.453,1.459-2.504,3.227-2.5
		c9.479,0.021,18.959,0.01,28.438,0.01c14.219,0,28.438-0.047,42.656,0.035c3.34,0.02,6.063-0.736,8.584-3.178
		c5.711-5.529,10.957-11.299,13.822-18.893c3.469-9.193,3.896-18.566,1.738-28.08c-0.684-3.02-1.996-5.773-3.367-8.613
		c-6.938-14.371-18.572-21.82-33.943-23.242c-10.355-0.959-19.848,2.6-27.668,9.506c-10.273,9.072-15.42,20.729-15.273,34.43
		c0.137,12.889,5.074,23.863,14.547,32.672c1.482,1.377,3.094,2.596,4.236,4.297"/>
	
		<path display="inline" fill-rule="evenodd" clip-rule="evenodd" fill="none" stroke="#000000" stroke-width="2" stroke-linecap="round" stroke-linejoin="round" stroke-miterlimit="10" d="
		M594.275,522.576c0,23.936,0,47.869,0,71.805"/>
	
		<path display="inline" fill-rule="evenodd" clip-rule="evenodd" fill="none" stroke="#000000" stroke-width="2" stroke-linecap="round" stroke-linejoin="round" stroke-miterlimit="10" d="
		M579.346,528.264c-2.715,8.35-5.08,16.838-5.592,25.6c-0.637,10.916-0.064,21.814,3.453,32.344c0.748,2.24,1.428,4.5,2.139,6.752"
		/>
	
		<path display="inline" fill-rule="evenodd" clip-rule="evenodd" fill="none" stroke="#000000" stroke-width="2" stroke-linecap="round" stroke-linejoin="round" stroke-miterlimit="10" d="
		M612.049,528.975c3.398,10.762,5.926,21.719,5.617,33.057c-0.271,9.979-1.365,19.893-5.588,29.164
		c-0.225,0.49-0.029,1.172-0.029,1.764"/>
	
		<path display="inline" fill-rule="evenodd" clip-rule="evenodd" fill="none" stroke="#000000" stroke-width="2" stroke-linecap="round" stroke-linejoin="round" stroke-miterlimit="10" d="
		M633.377,544.26c2.666,0.088,4.734,2.018,7.461,2.193c8.289,0.535,13.139-3.637,16.285-10.047
		c3.031-6.178,1.717-12.357-2.145-17.682c-3.828-5.279-9.318-7.355-15.918-6.117c-5.516,1.037-11.332,6.336-12.398,13.885
		c-0.225,1.596-0.551,3.121-1.105,4.615"/>
	
		<path display="inline" fill-rule="evenodd" clip-rule="evenodd" fill="none" stroke="#000000" stroke-width="2" stroke-linecap="round" stroke-linejoin="round" stroke-miterlimit="10" d="
		M649.729,518.311c-8.404,1.416-15.334,5.348-20.617,12.086"/>
	
		<path display="inline" fill-rule="evenodd" clip-rule="evenodd" fill="none" stroke="#000000" stroke-width="2" stroke-linecap="round" stroke-linejoin="round" stroke-miterlimit="10" d="
		M654.705,530.396c-4.975,6.195-11.619,9.572-19.195,11.375"/>
	
		<path display="inline" fill-rule="evenodd" clip-rule="evenodd" fill="none" stroke="#000000" stroke-width="2" stroke-linecap="round" stroke-linejoin="round" stroke-miterlimit="10" d="
		M651.15,524.709c-6.162,3.555-12.322,7.109-18.484,10.664"/>
	
		<path display="inline" fill-rule="evenodd" clip-rule="evenodd" fill="none" stroke="#000000" stroke-width="2" stroke-linecap="round" stroke-linejoin="round" stroke-miterlimit="10" d="
		M640.486,560.256c-1.498,0.67-3.08,0.238-4.621,0.355"/>
	
		<path display="inline" fill-rule="evenodd" clip-rule="evenodd" fill="none" stroke="#000000" stroke-width="2" stroke-linecap="round" stroke-linejoin="round" stroke-miterlimit="10" d="
		M553.041,555.99c-1.422-0.119-2.844-0.236-4.266-0.355"/>
	
		<path display="inline" fill-rule="evenodd" clip-rule="evenodd" fill="none" stroke="#000000" stroke-width="2" stroke-linecap="round" stroke-linejoin="round" stroke-miterlimit="10" d="
		M556.951,531.463c1.303,0.947,2.607,1.896,3.91,2.844"/>
	
		<path display="inline" fill-rule="evenodd" clip-rule="evenodd" fill="none" stroke="#000000" stroke-width="2" stroke-linecap="round" stroke-linejoin="round" stroke-miterlimit="10" d="
		M655.416,512.268c-1.648,0.391-2.9,1.203-3.199,3.021"/>
	
		<path display="inline" fill-rule="evenodd" clip-rule="evenodd" fill="none" stroke="#000000" stroke-width="2" stroke-linecap="round" stroke-linejoin="round" stroke-miterlimit="10" d="
		M610.982,515.467c0.111,1.518-1.232,2.504-1.422,3.91"/>
</g>
<g id="cactus2" display="none">
	
		<path display="inline" fill-rule="evenodd" clip-rule="evenodd" fill="none" stroke="#000000" stroke-width="0.5" stroke-linecap="round" stroke-linejoin="round" stroke-miterlimit="10" d="
		M0.405,6.958c0.194,1.22,0.385,2.44,0.574,3.661c0.169,1.086,0.363,2.169,0.482,3.263c0.021,0.195,0.082,0.277,0.281,0.277
		c2.95-0.003,5.9-0.002,8.85-0.003c0.014,0,0.026-0.024,0.08-0.078c0.231-1.556,0.457-3.159,0.712-4.758
		c0.125-0.786,0.29-1.565,0.349-2.361"/>
	
		<path display="inline" fill-rule="evenodd" clip-rule="evenodd" fill="none" stroke="#000000" stroke-width="0.5" stroke-linecap="round" stroke-linejoin="round" stroke-miterlimit="10" d="
		M8.192,4.559C8.32,4.681,8.479,4.636,8.625,4.636c1.298,0.003,2.597,0.002,3.894,0.002c0.133,0,0.265,0,0.413,0
		c0,0.748,0,1.456,0,2.203c-0.544,0-1.068,0-1.593,0c-3.514,0-7.027,0-10.542,0c-0.433,0-0.865-0.005-1.298,0.002
		c-0.201,0.004-0.32-0.045-0.317-0.277c0.008-0.551,0.01-1.102,0-1.652C-0.822,4.642-0.656,4.636-0.46,4.636
		c1.048,0.003,2.097,0.001,3.147,0.001c1.573,0,3.146-0.005,4.72,0.004c0.37,0.003,0.671-0.082,0.95-0.352
		c0.632-0.612,1.212-1.25,1.529-2.091c0.384-1.018,0.432-2.054,0.192-3.107c-0.076-0.334-0.221-0.638-0.373-0.953
		C8.938-3.451,7.65-4.276,5.95-4.433C4.804-4.539,3.753-4.145,2.888-3.381c-1.137,1.005-1.707,2.294-1.689,3.81
		c0.015,1.427,0.561,2.641,1.608,3.615C2.971,4.197,3.149,4.332,3.276,4.52"/>
	
		<path display="inline" fill-rule="evenodd" clip-rule="evenodd" fill="none" stroke="#000000" stroke-width="0.5" stroke-linecap="round" stroke-linejoin="round" stroke-miterlimit="10" d="
		M5.715-3.78c0,2.648,0,5.296,0,7.945"/>
	
		<path display="inline" fill-rule="evenodd" clip-rule="evenodd" fill="none" stroke="#000000" stroke-width="0.5" stroke-linecap="round" stroke-linejoin="round" stroke-miterlimit="10" d="
		M4.063-3.15C3.763-2.227,3.501-1.288,3.444-0.318C3.373,0.89,3.438,2.096,3.826,3.262c0.083,0.247,0.158,0.498,0.237,0.747"/>
	
		<path display="inline" fill-rule="evenodd" clip-rule="evenodd" fill="none" stroke="#000000" stroke-width="0.5" stroke-linecap="round" stroke-linejoin="round" stroke-miterlimit="10" d="
		M7.682-3.072c0.376,1.19,0.656,2.403,0.621,3.658C8.273,1.69,8.152,2.788,7.685,3.813C7.66,3.868,7.682,3.943,7.682,4.008"/>
	
		<path display="inline" fill-rule="evenodd" clip-rule="evenodd" fill="none" stroke="#000000" stroke-width="0.5" stroke-linecap="round" stroke-linejoin="round" stroke-miterlimit="10" d="
		M10.042-1.38c0.295,0.01,0.523,0.223,0.825,0.242c0.918,0.06,1.454-0.402,1.803-1.111c0.335-0.684,0.189-1.368-0.238-1.957
		c-0.423-0.584-1.03-0.814-1.761-0.677c-0.61,0.114-1.254,0.701-1.372,1.536C9.273-3.17,9.237-3.001,9.176-2.836"/>
	
		<path display="inline" fill-rule="evenodd" clip-rule="evenodd" fill="none" stroke="#000000" stroke-width="0.5" stroke-linecap="round" stroke-linejoin="round" stroke-miterlimit="10" d="
		M11.852-4.251C10.921-4.095,10.154-3.66,9.57-2.915"/>
	
		<path display="inline" fill-rule="evenodd" clip-rule="evenodd" fill="none" stroke="#000000" stroke-width="0.5" stroke-linecap="round" stroke-linejoin="round" stroke-miterlimit="10" d="
		M12.402-2.915c-0.551,0.686-1.286,1.059-2.125,1.259"/>
	
		<path display="inline" fill-rule="evenodd" clip-rule="evenodd" fill="none" stroke="#000000" stroke-width="0.5" stroke-linecap="round" stroke-linejoin="round" stroke-miterlimit="10" d="
		M12.009-3.544c-0.682,0.394-1.364,0.788-2.046,1.181"/>
	
		<path display="inline" fill-rule="evenodd" clip-rule="evenodd" fill="none" stroke="#000000" stroke-width="0.5" stroke-linecap="round" stroke-linejoin="round" stroke-miterlimit="10" d="
		M10.828,0.39c-0.166,0.074-0.341,0.026-0.511,0.039"/>
	
		<path display="inline" fill-rule="evenodd" clip-rule="evenodd" fill="none" stroke="#000000" stroke-width="0.5" stroke-linecap="round" stroke-linejoin="round" stroke-miterlimit="10" d="
		M1.152-0.082C0.994-0.096,0.838-0.109,0.68-0.122"/>
	
		<path display="inline" fill-rule="evenodd" clip-rule="evenodd" fill="none" stroke="#000000" stroke-width="0.5" stroke-linecap="round" stroke-linejoin="round" stroke-miterlimit="10" d="
		M1.585-2.796c0.145,0.104,0.288,0.209,0.433,0.314"/>
	
		<path display="inline" fill-rule="evenodd" clip-rule="evenodd" fill="none" stroke="#000000" stroke-width="0.5" stroke-linecap="round" stroke-linejoin="round" stroke-miterlimit="10" d="
		M12.48-4.921c-0.183,0.044-0.321,0.133-0.354,0.334"/>
	
		<path display="inline" fill-rule="evenodd" clip-rule="evenodd" fill="none" stroke="#000000" stroke-width="0.5" stroke-linecap="round" stroke-linejoin="round" stroke-miterlimit="10" d="
		M7.563-4.566C7.576-4.398,7.428-4.29,7.406-4.134"/>
</g>
<g id="cactus3" display="none">
	<g display="inline">
		
			<path fill-rule="evenodd" clip-rule="evenodd" fill="none" stroke="#000000" stroke-width="0.5" stroke-linecap="round" stroke-linejoin="round" stroke-miterlimit="10" d="
			M0.481,7.516c0.354,2.344,0.708,4.687,1.065,7.047c3.003,0,5.988,0,8.99,0c0.357-2.36,0.711-4.703,1.065-7.047"/>
		
			<path fill-rule="evenodd" clip-rule="evenodd" fill="none" stroke="#000000" stroke-width="0.5" stroke-linecap="round" stroke-linejoin="round" stroke-miterlimit="10" d="
			M6.852,5.122c0.125,0.159,0.302,0.114,0.464,0.115c1.686,0.002,3.373,0,5.057,0c0.131,0,0.261,0,0.406,0c0,0.734,0,1.429,0,2.182
			c-4.499,0-8.978,0-13.475,0c0-0.753,0-1.448,0-2.182c0.147,0,0.276,0,0.405,0c1.673,0,3.347,0.01,5.02-0.005
			C5.321,5.227,5.914,5.13,6.505,5.135c0.28,0.002,0.401-0.215,0.617-0.284c0.716-0.226,1.382-0.566,2.002-0.973
			c1.102-0.723,2.093-1.585,2.505-2.891c0.47-1.486-0.202-2.737-1.841-3.091C8.665-2.345,7.766-1.923,6.929-1.249
			C6.866-1.197,6.802-1.144,6.717-1.074C6.431-1.372,6.272-1.771,5.929-2.026C4.997-2.72,4.01-3.045,2.876-2.561
			C2.808-2.532,2.747-2.525,2.683-2.562"/>
		
			<path fill-rule="evenodd" clip-rule="evenodd" fill="none" stroke="#000000" stroke-width="0.5" stroke-linecap="round" stroke-linejoin="round" stroke-miterlimit="10" d="
			M10.868-1.712c0.288-0.345,0.742-0.466,1.051-0.803c0.516-0.561,0.565-1.356-0.017-1.812c-0.408-0.319-0.931-0.322-1.416-0.154
			c-0.162,0.057-0.362,0.122-0.468,0.297"/>
		
			<path fill-rule="evenodd" clip-rule="evenodd" fill="none" stroke="#000000" stroke-width="0.5" stroke-linecap="round" stroke-linejoin="round" stroke-miterlimit="10" d="
			M0.849-3.758C0.814-4.289,1.081-4.674,1.53-4.866C2.11-5.113,2.773-4.548,2.805-3.875c0.021,0.439-0.099,0.854-0.176,1.272
			C2.573-2.29,2.239-2.129,2.022-1.909C1.584-1.463,1.443-0.886,1.471-0.323C1.5,0.262,1.694,0.853,1.993,1.375
			C2.702,2.613,3.61,3.688,4.726,4.585c0.189,0.152,0.337,0.356,0.505,0.537"/>
		
			<path fill-rule="evenodd" clip-rule="evenodd" fill="none" stroke="#000000" stroke-width="0.5" stroke-linecap="round" stroke-linejoin="round" stroke-miterlimit="10" d="
			M10.096-4.299C9.864-4.521,9.793-4.853,9.487-5.046C9.047-5.325,8.623-5.399,8.168-5.182C7.64-4.93,7.487-4.461,7.55-3.914
			c0.076,0.668,0.452,1.21,0.77,1.776"/>
		
			<path fill-rule="evenodd" clip-rule="evenodd" fill="none" stroke="#000000" stroke-width="0.5" stroke-linecap="round" stroke-linejoin="round" stroke-miterlimit="10" d="
			M0.752-3.836C0.333-3.831-0.096-3.89-0.41-3.491c-0.339,0.432-0.218,1.015,0.272,1.28c0.485,0.263,1.007,0.353,1.546,0.382
			C1.546-1.822,1.687-1.84,1.814-1.77"/>
		
			<path fill-rule="evenodd" clip-rule="evenodd" fill="none" stroke="#000000" stroke-width="0.5" stroke-linecap="round" stroke-linejoin="round" stroke-miterlimit="10" d="
			M1.409-0.361C1.215-0.374,1.022-0.386,0.83-0.4"/>
		
			<path fill-rule="evenodd" clip-rule="evenodd" fill="none" stroke="#000000" stroke-width="0.5" stroke-linecap="round" stroke-linejoin="round" stroke-miterlimit="10" d="
			M1.447-5.341c-0.067,0.17,0.066,0.286,0.117,0.425"/>
	</g>
</g>
<g id="Capa_4" display="none">
	<g id="XMLID_9_" display="inline">
		<path id="XMLID_13_" fill="#231F20" d="M10.3,4.75c0.074-0.249,0.111-0.505,0.111-0.761c0-1.773-1.75-3.217-3.9-3.217
			c-2.152,0-3.901,1.444-3.901,3.217c0,0.255,0.037,0.512,0.11,0.761c0.104,0.521,0.247,0.942,0.426,1.251
			c0.384,0.664,1.996,2.856,2.737,3.854c-1.001,0.106-1.467,0.461-1.467,0.796c0,0.398,0.656,0.827,2.095,0.827
			c1.438,0,2.094-0.429,2.094-0.827c0-0.334-0.465-0.69-1.466-0.796c0.74-0.998,2.354-3.19,2.737-3.854
			C10.052,5.692,10.195,5.271,10.3,4.75z M8,10.651c-0.041,0.093-0.544,0.33-1.49,0.33c-0.957,0-1.462-0.242-1.492-0.327
			c0.027-0.083,0.438-0.286,1.215-0.327c0.009,0.013,0.017,0.021,0.02,0.027c0.055,0.074,0.152,0.118,0.257,0.118
			s0.201-0.044,0.256-0.118c0.004-0.005,0.01-0.014,0.02-0.027C7.553,10.369,7.964,10.567,8,10.651z M3.688,5.787
			C3.536,5.523,3.406,5.132,3.313,4.659C3.31,4.652,3.31,4.647,3.306,4.641C3.243,4.427,3.21,4.208,3.21,3.989
			c0-1.5,1.48-2.721,3.3-2.721c1.819,0,3.299,1.22,3.299,2.721c0,0.219-0.034,0.438-0.097,0.652
			C9.709,4.647,9.708,4.652,9.708,4.659C9.614,5.132,9.483,5.523,9.331,5.787C8.944,6.457,7.178,8.85,6.51,9.75
			C5.842,8.85,4.076,6.458,3.688,5.787z"/>
		<path id="XMLID_10_" fill="#231F20" d="M6.51,2.17c-1.155,0-2.095,0.774-2.095,1.726c0,0.953,0.94,1.728,2.095,1.728
			c1.154,0,2.094-0.775,2.094-1.728C8.604,2.944,7.664,2.17,6.51,2.17z M5.019,3.896c0-0.678,0.669-1.229,1.492-1.229
			s1.491,0.552,1.491,1.229c0,0.679-0.668,1.23-1.491,1.23S5.019,4.574,5.019,3.896z"/>
	</g>
</g>
<g id="Capa_7" display="none">
	<g id="XMLID_37_" display="inline">
		<path id="XMLID_66_" fill="#231F20" d="M4.751,3.827H9.07c0.082,0,0.147-0.067,0.147-0.149c0-0.081-0.065-0.148-0.147-0.148H4.751
			c-0.081,0-0.148,0.067-0.148,0.148C4.603,3.76,4.67,3.827,4.751,3.827z"/>
		<path id="XMLID_65_" fill="#231F20" d="M9.218,4.979c0-0.082-0.065-0.147-0.147-0.147H4.751c-0.081,0-0.148,0.066-0.148,0.147
			S4.67,5.127,4.751,5.127H9.07C9.152,5.127,9.218,5.061,9.218,4.979z"/>
		<path id="XMLID_56_" fill="#231F20" d="M12.441,4.614l-1.823-1.335V2.957c0-0.644-0.544-1.167-1.211-1.167H8.584L7.112,0.711
			c-0.079-0.057-0.183-0.057-0.261,0L5.379,1.79H4.556c-0.669,0-1.211,0.523-1.211,1.167v0.322L1.521,4.614
			C1.464,4.656,1.431,4.723,1.43,4.792c0,0.013,0.003,0.025,0.004,0.038c0,0.01-0.004,0.02-0.004,0.03v5.525
			c0,0.033,0.009,0.063,0.022,0.091c-0.023,0.05-0.029,0.108-0.01,0.162c0.03,0.09,0.115,0.15,0.209,0.15h10.66
			c0.094,0,0.179-0.061,0.209-0.151c0.019-0.054,0.012-0.111-0.011-0.162c0.013-0.028,0.022-0.059,0.022-0.091V4.86
			c0-0.01-0.002-0.02-0.004-0.029c0.002-0.013,0.004-0.026,0.004-0.039C12.531,4.721,12.497,4.656,12.441,4.614z M10.618,3.829
			l1.324,0.969l-1.277,0.985l-0.047,0.035V3.829z M6.981,1.165L7.833,1.79H6.129L6.981,1.165z M3.787,2.957
			c0-0.399,0.345-0.724,0.769-0.724h4.852c0.424,0,0.768,0.325,0.768,0.724V6.14L8.432,7.408C8.403,7.415,8.374,7.426,8.349,7.445
			L6.995,8.471L5.576,7.442l0,0l0,0L3.787,6.14V2.957z M3.345,3.829v1.947l-1.32-0.98L3.345,3.829z M1.873,5.296l3.196,2.327
			L1.873,9.949V5.296z M2.3,10.345L5.451,7.9l1.417,1.027c0.078,0.057,0.185,0.056,0.263-0.002l1.351-1.023l3.177,2.443H2.3z
			 M12.089,9.949L8.893,7.623l3.197-2.327V9.949z"/>
	</g>
</g>
<g id="whatsapp" display="none">
	<g display="inline">
		<path fill-rule="evenodd" clip-rule="evenodd" fill="#FFFFFF" d="M1.318,11.599c0.041-0.007,0.06-0.009,0.077-0.016
			c0.861-0.225,1.725-0.45,2.583-0.681c0.126-0.035,0.23-0.023,0.346,0.036c1.016,0.51,2.092,0.68,3.212,0.513
			c1.115-0.167,2.097-0.632,2.896-1.424c1.502-1.486,2.016-3.283,1.479-5.326c-0.717-2.722-3.521-4.5-6.455-3.792
			C3.232,1.449,1.594,3.347,1.38,5.62C1.279,6.71,1.485,7.748,2.019,8.713c0.04,0.076,0.047,0.143,0.024,0.225
			c-0.232,0.836-0.462,1.673-0.69,2.509C1.339,11.49,1.333,11.535,1.318,11.599z"/>
		<path fill-rule="evenodd" clip-rule="evenodd" d="M1.318,11.599c0.015-0.063,0.021-0.108,0.034-0.151
			c0.229-0.835,0.458-1.673,0.69-2.509C2.065,8.856,2.059,8.79,2.019,8.713C1.485,7.748,1.279,6.71,1.38,5.62
			c0.214-2.272,1.853-4.171,4.077-4.71c2.935-0.707,5.738,1.071,6.455,3.792c0.537,2.043,0.023,3.839-1.479,5.326
			c-0.799,0.792-1.782,1.257-2.896,1.424c-1.12,0.167-2.196-0.003-3.212-0.513c-0.116-0.06-0.219-0.071-0.346-0.036
			c-0.859,0.231-1.722,0.456-2.583,0.681C1.378,11.589,1.359,11.591,1.318,11.599z M2.616,10.307
			c0.051-0.008,0.079-0.011,0.104-0.019c0.459-0.119,0.92-0.232,1.374-0.361c0.149-0.042,0.259-0.021,0.39,0.055
			c1.007,0.583,2.084,0.758,3.216,0.506c2.37-0.525,3.889-2.845,3.41-5.223c-0.592-2.952-3.846-4.496-6.517-3.043
			C2.792,3.205,1.898,5.287,2.415,7.258c0.124,0.471,0.317,0.91,0.586,1.317c0.045,0.067,0.059,0.13,0.033,0.209
			C2.996,8.9,2.967,9.019,2.936,9.135C2.828,9.52,2.726,9.904,2.616,10.307z"/>
		<path fill-rule="evenodd" clip-rule="evenodd" fill="#FFFFFF" d="M2.293,10.634c0.119-0.436,0.229-0.851,0.346-1.266
			c0.033-0.126,0.065-0.254,0.106-0.38C2.773,8.903,2.758,8.834,2.71,8.762C2.418,8.322,2.209,7.848,2.075,7.34
			C1.519,5.209,2.483,2.96,4.43,1.897c2.885-1.569,6.4,0.099,7.041,3.288c0.517,2.569-1.124,5.076-3.685,5.644
			c-1.222,0.273-2.386,0.083-3.474-0.547c-0.142-0.081-0.261-0.104-0.421-0.059c-0.49,0.14-0.989,0.262-1.484,0.39
			C2.379,10.622,2.348,10.625,2.293,10.634z M3.711,4.721c0.005,0.092,0.003,0.185,0.021,0.273c0.023,0.125,0.052,0.249,0.086,0.369
			C3.93,5.715,4.12,6.025,4.316,6.334c0.288,0.445,0.608,0.86,0.971,1.243c0.677,0.712,1.522,1.138,2.44,1.43
			c0.493,0.157,0.964,0.105,1.417-0.165C9.54,8.607,9.698,8.259,9.722,7.823c0.007-0.132-0.044-0.208-0.154-0.265
			c-0.275-0.142-0.547-0.291-0.82-0.435C8.625,7.06,8.504,6.996,8.381,6.944c-0.153-0.063-0.217-0.039-0.32,0.081
			C7.924,7.19,7.785,7.35,7.641,7.509C7.494,7.673,7.402,7.695,7.202,7.603C7.089,7.548,6.979,7.484,6.867,7.422
			C6.182,7.034,5.672,6.477,5.291,5.793C5.234,5.69,5.237,5.6,5.306,5.51c0.058-0.082,0.125-0.157,0.191-0.236
			C5.572,5.181,5.65,5.087,5.723,4.989C5.781,4.906,5.788,4.81,5.753,4.713C5.608,4.324,5.462,3.936,5.317,3.547
			c-0.04-0.106-0.113-0.178-0.212-0.228C4.857,3.197,4.493,3.246,4.289,3.43C3.91,3.776,3.712,4.204,3.711,4.721z"/>
		<path fill-rule="evenodd" clip-rule="evenodd" d="M3.928,4.835C3.929,4.355,4.113,3.96,4.463,3.639
			c0.188-0.17,0.525-0.215,0.754-0.102c0.093,0.046,0.159,0.112,0.196,0.211c0.135,0.359,0.27,0.719,0.404,1.079
			c0.032,0.089,0.027,0.178-0.029,0.255C5.723,5.173,5.651,5.26,5.58,5.347C5.52,5.42,5.457,5.489,5.403,5.564
			C5.341,5.648,5.338,5.732,5.391,5.828C5.742,6.459,6.214,6.975,6.85,7.334c0.103,0.057,0.204,0.117,0.31,0.167
			C7.346,7.587,7.43,7.567,7.565,7.414C7.699,7.268,7.827,7.12,7.954,6.967C8.05,6.855,8.108,6.834,8.25,6.892
			c0.114,0.048,0.227,0.107,0.339,0.165C8.843,7.19,9.094,7.328,9.349,7.46c0.103,0.053,0.149,0.124,0.143,0.245
			C9.47,8.109,9.323,8.432,8.958,8.65C8.538,8.9,8.101,8.947,7.645,8.802c-0.849-0.27-1.632-0.665-2.258-1.324
			C5.051,7.124,4.754,6.74,4.488,6.328C4.306,6.042,4.131,5.754,4.028,5.429c-0.032-0.111-0.06-0.226-0.08-0.341
			C3.931,5.005,3.933,4.919,3.928,4.835z"/>
	</g>
</g>
</svg>
