<?xml version="1.0" encoding="utf-8"?>
<!-- Generator: Adobe Illustrator 16.0.3, SVG Export Plug-In . SVG Version: 6.00 Build 0)  -->
<!DOCTYPE svg PUBLIC "-//W3C//DTD SVG 1.1//EN" "http://www.w3.org/Graphics/SVG/1.1/DTD/svg11.dtd">
<svg version="1.1" xmlns="http://www.w3.org/2000/svg" xmlns:xlink="http://www.w3.org/1999/xlink" x="0px" y="0px"
	 width="20.563px" height="11.729px" viewBox="0 0 20.563 11.729" enable-background="new 0 0 20.563 11.729" xml:space="preserve">
<g id="doble">
	<g>
		
			<path fill-rule="evenodd" clip-rule="evenodd" fill="none" stroke="#000000" stroke-width="0.5" stroke-linecap="round" stroke-linejoin="round" stroke-miterlimit="10" d="
			M8.298,9.377c0.075-0.634-0.139-1.101-0.24-1.64C8.038,7.641,8.02,7.545,8,7.45c-0.028-0.127-0.056-0.255-0.089-0.38
			C7.837,6.799,7.757,6.53,7.671,6.262c-0.25-0.785-0.092-1.72-0.034-2.583c0.05-0.768-0.221-1.02-0.99-0.992
			C5.242,2.741,3.831,2.731,2.424,2.69c-0.67-0.02-0.896,0.21-0.88,0.88C1.576,4.877,1.77,6.253,1.186,7.446
			c-0.333,0.678-0.38,1.296-0.383,1.975c-0.008,1.069,0.798,1.665,1.833,1.288c0.461-0.169,1.139-0.295,1.626-0.339
			c0.476-0.042,1.116,0.062,1.585,0.151c0.74,0.135,1.387,0.53,2.004-0.137C7.974,10.253,8.223,10.011,8.298,9.377z"/>
		
			<path fill-rule="evenodd" clip-rule="evenodd" fill="none" stroke="#000000" stroke-width="0.5" stroke-linecap="round" stroke-linejoin="round" stroke-miterlimit="10" d="
			M1.665,6.386c1.229,0,2.458-0.035,3.683,0.012C6.207,6.43,6.228,5.943,6.229,5.303C6.23,4.665,6.141,4.217,5.348,4.322
			C5.064,4.358,4.771,4.328,4.482,4.328c-1.682,0-1.83,0.179-1.516,1.841"/>
		
			<path fill-rule="evenodd" clip-rule="evenodd" fill="none" stroke="#000000" stroke-width="0.5" stroke-linecap="round" stroke-linejoin="round" stroke-miterlimit="10" d="
			M1.339,7.685c2.205,0.18,4.408,0.18,6.608,0"/>
		
			<path fill-rule="evenodd" clip-rule="evenodd" fill="none" stroke="#000000" stroke-width="0.5" stroke-linecap="round" stroke-linejoin="round" stroke-miterlimit="10" d="
			M10.333,3.245c0,1.876,0,3.755,0,5.633"/>
		
			<path fill-rule="evenodd" clip-rule="evenodd" fill="none" stroke="#000000" stroke-width="0.5" stroke-linecap="round" stroke-linejoin="round" stroke-miterlimit="10" d="
			M11.632,2.703c-0.145-0.433-0.246-0.89-0.448-1.292c-0.157-0.313-0.371-0.578-0.851-0.578c-0.482,0-0.702,0.264-0.851,0.578
			C9.287,1.817,9.203,2.278,9.043,2.815c0.807,0.228,1.623,0.601,2.48-0.004"/>
		
			<path fill-rule="evenodd" clip-rule="evenodd" fill="none" stroke="#000000" stroke-width="0.5" stroke-linecap="round" stroke-linejoin="round" stroke-miterlimit="10" d="
			M10.982,3.245c0,0.468,0,0.938,0,1.407"/>
		
			<path fill-rule="evenodd" clip-rule="evenodd" fill="none" stroke="#000000" stroke-width="0.5" stroke-linecap="round" stroke-linejoin="round" stroke-miterlimit="10" d="
			M7.515,6.386C7.12,6.334,6.704,6.499,6.323,6.277"/>
		
			<path fill-rule="evenodd" clip-rule="evenodd" fill="none" stroke="#000000" stroke-width="0.5" stroke-linecap="round" stroke-linejoin="round" stroke-miterlimit="10" d="
			M11.307,9.095c-0.649,0-1.301,0-1.95,0"/>
	</g>
	
		<path fill-rule="evenodd" clip-rule="evenodd" fill="none" stroke="#000000" stroke-width="0.5" stroke-linecap="round" stroke-linejoin="round" stroke-miterlimit="10" d="
		M19.853,9.377c0.076-0.634-0.139-1.101-0.241-1.64c-0.02-0.097-0.037-0.192-0.058-0.288c-0.026-0.127-0.056-0.255-0.089-0.38
		c-0.073-0.271-0.154-0.539-0.239-0.808c-0.251-0.785-0.093-1.72-0.035-2.583c0.051-0.768-0.222-1.02-0.989-0.992
		c-1.406,0.054-2.817,0.044-4.225,0.003c-0.669-0.02-0.896,0.21-0.879,0.88c0.031,1.307,0.224,2.683-0.359,3.876
		c-0.332,0.678-0.38,1.296-0.382,1.975c-0.007,1.069,0.8,1.665,1.834,1.288c0.459-0.169,1.14-0.295,1.627-0.339
		c0.476-0.042,1.114,0.062,1.584,0.151c0.739,0.135,1.386,0.53,2.004-0.137C19.529,10.253,19.778,10.011,19.853,9.377z"/>
	
		<path fill-rule="evenodd" clip-rule="evenodd" fill="none" stroke="#000000" stroke-width="0.5" stroke-linecap="round" stroke-linejoin="round" stroke-miterlimit="10" d="
		M13.221,6.386c1.228,0,2.455-0.035,3.683,0.012c0.858,0.032,0.879-0.455,0.879-1.095c0.002-0.638-0.088-1.086-0.879-0.981
		c-0.287,0.037-0.579,0.006-0.867,0.006c-1.684,0-1.832,0.179-1.518,1.841"/>
	
		<path fill-rule="evenodd" clip-rule="evenodd" fill="none" stroke="#000000" stroke-width="0.5" stroke-linecap="round" stroke-linejoin="round" stroke-miterlimit="10" d="
		M12.894,7.685c2.202,0.18,4.407,0.18,6.609,0"/>
	
		<path fill-rule="evenodd" clip-rule="evenodd" fill="none" stroke="#000000" stroke-width="0.5" stroke-linecap="round" stroke-linejoin="round" stroke-miterlimit="10" d="
		M19.07,6.386c-0.395-0.052-0.812,0.112-1.191-0.109"/>
</g>
<g id="desayuno" display="none">
	<g id="XMLID_94_" display="inline">
		<path id="XMLID_95_" fill="#231F20" d="M15.863,3.292l-0.001-0.051h-0.229c-0.083-0.207-0.387-0.457-1.659-0.656
			c-0.955-0.151-2.229-0.232-3.577-0.232c-1.351,0-2.623,0.081-3.578,0.232C5.532,2.786,5.233,3.04,5.155,3.25L5.107,3.253
			L5.104,3.536c0,1.867,0.688,3.622,1.894,4.835C6.045,8.627,5.565,8.982,5.565,9.425c0,1.142,3.219,1.444,4.92,1.444
			c1.702,0,4.923-0.302,4.923-1.444c0-0.443-0.483-0.798-1.437-1.056c0.068-0.068,0.129-0.133,0.188-0.195
			c0.335,0.054,0.653,0.081,0.945,0.081c0.886,0,1.608-0.229,2.146-0.677c0.595-0.5,0.91-1.24,0.91-2.143
			C18.16,4.051,16.937,3.419,15.863,3.292z M15.802,4.489c0.44,0.123,0.929,0.402,0.929,1.034c0,0.518-0.171,0.937-0.499,1.209
			c-0.312,0.262-0.753,0.389-1.307,0.385C15.382,6.332,15.682,5.426,15.802,4.489z M10.396,2.884c2.51,0,4.235,0.285,4.667,0.515
			c-0.432,0.232-2.158,0.518-4.667,0.518S6.159,3.631,5.728,3.399C6.159,3.169,7.886,2.884,10.396,2.884z M14.877,9.425
			c0,0.322-1.669,0.913-4.393,0.913c-2.723,0-4.393-0.591-4.393-0.913c0-0.13,0.369-0.403,1.381-0.626
			c0.891,0.715,1.932,1.092,3.012,1.092c1.077,0,2.116-0.378,3.009-1.092C14.507,9.021,14.877,9.295,14.877,9.425z M10.485,9.358
			c-2.555,0-4.662-2.374-4.837-5.423c0.274,0.108,0.657,0.2,1.17,0.279c0.955,0.15,2.228,0.233,3.578,0.233
			c1.349,0,2.622-0.083,3.577-0.233c0.64-0.099,1.084-0.219,1.354-0.364C15.19,6.948,13.083,9.358,10.485,9.358z M16.91,7.17
			c-0.538,0.451-1.351,0.63-2.356,0.521c0.014-0.02,0.026-0.04,0.042-0.06c0.14,0.013,0.259,0.02,0.367,0.02
			c0.083,0,0.165-0.003,0.242-0.008c0.555-0.037,1.013-0.206,1.366-0.503c0.338-0.283,0.557-0.667,0.646-1.13
			c0.028-0.154,0.043-0.315,0.043-0.486c0-1.086-0.945-1.456-1.41-1.572c0.001-0.04,0.005-0.079,0.006-0.12
			c0.212,0.032,0.498,0.094,0.784,0.219c0.656,0.283,0.988,0.749,0.988,1.385C17.63,6.174,17.38,6.774,16.91,7.17z"/>
	</g>
</g>
<g id="vistas" display="none">
	<g id="XMLID_17_" display="inline">
		<path id="XMLID_18_" fill="#231F20" d="M13.32,10.221h6.506c0.125,0,0.241-0.075,0.297-0.191c0.055-0.116,0.04-0.255-0.037-0.357
			l-5.231-6.867c-0.063-0.081-0.159-0.128-0.261-0.128c-0.103,0-0.199,0.047-0.258,0.128L13.339,4.11
			c-0.408-0.81-1.233-1.366-2.186-1.366c-0.797,0-1.502,0.39-1.953,0.991L7.347,1.223C7.285,1.138,7.188,1.087,7.082,1.087
			c-0.103,0-0.2,0.05-0.263,0.136L0.582,9.678c-0.076,0.103-0.09,0.24-0.032,0.356c0.057,0.112,0.17,0.187,0.297,0.187h8.518H13.32z
			 M7.082,1.988l5.575,7.555h-2.615H1.508L7.082,1.988z M12.874,4.724l-1.496,1.962L9.62,4.305c0.318-0.528,0.884-0.885,1.534-0.885
			C11.962,3.42,12.649,3.969,12.874,4.724z M13.486,9.543l-1.695-2.297l2.803-3.68l4.556,5.977H13.486z"/>
	</g>
</g>
<g id="wifi" display="none">
	<g id="XMLID_67_" display="inline">
		<path id="XMLID_77_" fill="#231F20" d="M5.186,25.704c0,2.406,1.957,4.363,4.362,4.363c2.404,0,4.36-1.958,4.36-4.363
			c0-2.403-1.956-4.361-4.36-4.361C7.143,21.343,5.186,23.301,5.186,25.704z M12.639,25.704c0,1.706-1.386,3.092-3.091,3.092
			c-1.706,0-3.092-1.386-3.092-3.092c0-1.703,1.386-3.092,3.092-3.092C11.253,22.612,12.639,24.001,12.639,25.704z"/>
		<path id="XMLID_74_" fill="#231F20" d="M9.548-5.019c-6.963,0-13.484,2.742-18.363,7.722c-0.355,0.362-0.549,0.843-0.544,1.353
			s0.208,0.985,0.571,1.339C-8.43,5.748-7.957,5.94-7.456,5.94c0.007,0,0.013,0,0.02,0c0.509-0.006,0.985-0.209,1.341-0.571
			c4.156-4.243,9.711-6.578,15.643-6.578c5.931,0,11.485,2.335,15.642,6.576c0.361,0.369,0.844,0.573,1.361,0.573
			c0.501,0,0.974-0.194,1.332-0.545c0.363-0.354,0.566-0.83,0.571-1.339c0.005-0.509-0.188-0.99-0.544-1.353
			C23.03-2.276,16.51-5.019,9.548-5.019z M26.994,4.489c-0.242,0.238-0.661,0.233-0.897-0.009
			C21.699-0.009,15.822-2.479,9.548-2.479c-6.275,0-12.153,2.47-16.551,6.959c-0.119,0.122-0.278,0.188-0.445,0.189
			c-0.172,0-0.329-0.062-0.451-0.18C-8.02,4.37-8.088,4.211-8.09,4.043c-0.001-0.171,0.064-0.331,0.182-0.451
			c4.638-4.734,10.836-7.34,17.456-7.34c6.618,0,12.817,2.606,17.455,7.34c0.119,0.12,0.183,0.279,0.181,0.451
			C27.183,4.211,27.114,4.37,26.994,4.489z"/>
		<path id="XMLID_71_" fill="#231F20" d="M21.699,12.719c0.498,0,0.97-0.189,1.327-0.538c0.753-0.732,0.77-1.939,0.039-2.692
			C19.483,5.801,14.68,3.771,9.548,3.771c-5.135,0-9.936,2.03-13.519,5.719c-0.731,0.752-0.715,1.96,0.039,2.692
			c0.753,0.731,1.96,0.713,2.693-0.039C1.619,9.2,5.451,7.58,9.548,7.58c4.096,0,7.926,1.621,10.786,4.563
			C20.695,12.515,21.18,12.719,21.699,12.719z M-2.149,11.258c-0.244,0.251-0.646,0.257-0.898,0.014
			c-0.25-0.245-0.256-0.648-0.013-0.898C0.281,6.935,4.758,5.041,9.548,5.041c4.787,0,9.265,1.894,12.606,5.333
			c0.243,0.25,0.238,0.653-0.012,0.898c-0.245,0.237-0.663,0.23-0.897-0.014c-3.102-3.191-7.256-4.947-11.697-4.947
			C5.105,6.311,0.951,8.067-2.149,11.258z"/>
		<path id="XMLID_68_" fill="#231F20" d="M17.252,20.212c0.492,0,0.959-0.188,1.315-0.529c0.369-0.35,0.578-0.824,0.589-1.333
			c0.011-0.509-0.176-0.992-0.527-1.359c-2.396-2.506-5.62-3.886-9.081-3.886c-3.463,0-6.688,1.38-9.083,3.886
			c-0.351,0.367-0.538,0.85-0.526,1.359s0.221,0.983,0.588,1.333c0.356,0.341,0.823,0.529,1.316,0.529c0.012,0,0.029,0,0.043-0.002
			c0.509-0.011,0.982-0.22,1.333-0.588c1.67-1.748,3.918-2.71,6.329-2.71c2.41,0,4.658,0.962,6.327,2.71
			C16.232,19.995,16.733,20.212,17.252,20.212z M2.301,18.746c-0.116,0.122-0.275,0.192-0.444,0.195
			c-0.169,0.002-0.329-0.058-0.453-0.175c-0.122-0.116-0.192-0.275-0.196-0.444c-0.004-0.168,0.06-0.33,0.177-0.453
			c2.152-2.253,5.052-3.495,8.164-3.495c3.111,0,6.01,1.242,8.163,3.495c0.117,0.124,0.179,0.285,0.176,0.453
			c-0.003,0.169-0.074,0.328-0.196,0.444c-0.245,0.236-0.662,0.226-0.898-0.02c-1.909-2.001-4.483-3.103-7.244-3.103
			C6.785,15.643,4.213,16.745,2.301,18.746z"/>
	</g>
</g>
<g id="camera" display="none">
	<g id="XMLID_23_" display="inline">
		<path id="XMLID_33_" fill="#231F20" d="M4.682,11.232h10.827c0.198,0,0.359-0.161,0.359-0.359V3.241
			c0-0.199-0.161-0.36-0.359-0.36h-2.904V1.697c0-0.198-0.161-0.358-0.359-0.358H9.281c-0.197,0-0.357,0.16-0.357,0.358v1.184H7.622
			V2.744c0-0.198-0.161-0.359-0.359-0.359H6.258C6.06,2.385,5.9,2.546,5.9,2.744v0.137H4.682c-0.198,0-0.358,0.161-0.358,0.36v7.632
			C4.324,11.071,4.484,11.232,4.682,11.232z M9.641,2.056h2.247v0.825H9.641V2.056z M5.041,3.599h4.24h2.965h2.904v6.916H5.041
			V3.599z"/>
		<path id="XMLID_30_" fill="#231F20" d="M11.689,4.32c-1.525,0-2.766,1.241-2.766,2.766s1.24,2.765,2.766,2.765
			c1.524,0,2.765-1.24,2.765-2.765S13.213,4.32,11.689,4.32z M11.689,9.134c-1.13,0-2.049-0.92-2.049-2.048
			c0-1.13,0.919-2.049,2.049-2.049c1.129,0,2.048,0.918,2.048,2.049C13.737,8.214,12.818,9.134,11.689,9.134z"/>
		<path id="XMLID_27_" fill="#231F20" d="M11.689,5.611c-0.814,0-1.476,0.661-1.476,1.475c0,0.813,0.661,1.474,1.476,1.474
			c0.813,0,1.474-0.661,1.474-1.474C13.164,6.272,12.502,5.611,11.689,5.611z M11.689,7.843c-0.418,0-0.758-0.339-0.758-0.757
			c0-0.418,0.34-0.758,0.758-0.758c0.417,0,0.757,0.34,0.757,0.758C12.446,7.503,12.106,7.843,11.689,7.843z"/>
		<path id="XMLID_24_" fill="#231F20" d="M7.837,3.966h-2.01c-0.196,0-0.358,0.161-0.358,0.358v1.213
			c0,0.198,0.162,0.358,0.358,0.358h2.01c0.198,0,0.358-0.16,0.358-0.358V4.324C8.195,4.126,8.035,3.966,7.837,3.966z M7.478,5.177
			h-1.29V4.683h1.29V5.177z"/>
	</g>
</g>
<g id="Capa_4_copia" display="none">
	<g id="XMLID_80_" display="inline">
		<path id="XMLID_84_" fill="#231F20" stroke="#000000" stroke-width="0.25" stroke-miterlimit="10" d="M14.582,3.028
			c0.087-0.308,0.129-0.625,0.129-0.941c0-2.194-2.05-3.981-4.568-3.981c-2.52,0-4.569,1.787-4.569,3.981
			c0,0.316,0.043,0.634,0.13,0.941c0.121,0.645,0.288,1.166,0.498,1.549c0.45,0.821,2.337,3.534,3.206,4.769
			c-1.174,0.131-1.719,0.57-1.719,0.985c0,0.492,0.769,1.023,2.454,1.023c1.684,0,2.452-0.531,2.452-1.023
			c0-0.415-0.544-0.854-1.716-0.985c0.865-1.235,2.756-3.948,3.205-4.769C14.291,4.194,14.458,3.673,14.582,3.028z M11.889,10.33
			c-0.047,0.115-0.639,0.408-1.746,0.408c-1.121,0-1.712-0.299-1.747-0.405C8.429,10.231,8.909,9.98,9.819,9.93
			c0.011,0.015,0.02,0.026,0.024,0.033c0.063,0.091,0.178,0.146,0.3,0.146s0.236-0.054,0.3-0.146
			c0.004-0.006,0.012-0.018,0.024-0.033C11.365,9.98,11.846,10.226,11.889,10.33z M6.839,4.312C6.66,3.985,6.507,3.501,6.398,2.915
			C6.394,2.908,6.394,2.9,6.391,2.894C6.317,2.629,6.278,2.357,6.278,2.086c0-1.856,1.733-3.367,3.865-3.367
			c2.13,0,3.864,1.51,3.864,3.367c0,0.271-0.04,0.542-0.114,0.807C13.89,2.9,13.889,2.908,13.888,2.915
			c-0.108,0.586-0.263,1.07-0.44,1.396c-0.453,0.829-2.523,3.791-3.305,4.902C9.361,8.102,7.292,5.141,6.839,4.312z"/>
		<path id="XMLID_81_" fill="#231F20" stroke="#000000" stroke-width="0.25" stroke-miterlimit="10" d="M10.143-0.164
			c-1.353,0-2.454,0.958-2.454,2.135c0,1.179,1.102,2.138,2.454,2.138c1.351,0,2.452-0.958,2.452-2.138
			C12.595,0.793,11.494-0.164,10.143-0.164z M8.396,1.971c0-0.838,0.784-1.522,1.747-1.522c0.964,0,1.747,0.684,1.747,1.522
			c0,0.84-0.783,1.522-1.747,1.522C9.181,3.493,8.396,2.811,8.396,1.971z"/>
	</g>
</g>
<g id="cactus1" display="none">
	<g display="inline">
		
			<path fill-rule="evenodd" clip-rule="evenodd" fill="none" stroke="#000000" stroke-width="0.5" stroke-linecap="round" stroke-linejoin="round" stroke-miterlimit="10" d="
			M4.854,7.874c0.32,2.113,0.64,4.228,0.961,6.357c2.709,0,5.402,0,8.113,0c0.144-0.969,0.281-1.958,0.438-2.944
			c0.152-0.965,0.326-1.927,0.483-2.891c0.028-0.172,0.025-0.348,0.037-0.522"/>
		
			<path fill-rule="evenodd" clip-rule="evenodd" fill="none" stroke="#000000" stroke-width="0.5" stroke-linecap="round" stroke-linejoin="round" stroke-miterlimit="10" d="
			M9.383-4.388C9.286-4.027,9.041-3.735,8.925-3.379C8.664-2.573,8.541-1.75,8.461-0.906C8.386-0.12,8.442,0.654,8.491,1.429
			c0.042,0.664,0.156,1.327,0.246,1.989C8.842,4.202,9.073,4.96,9.14,5.749"/>
		
			<path fill-rule="evenodd" clip-rule="evenodd" fill="none" stroke="#000000" stroke-width="0.5" stroke-linecap="round" stroke-linejoin="round" stroke-miterlimit="10" d="
			M9.627-4.388c0,3.378,0,6.757,0,10.137"/>
		
			<path fill-rule="evenodd" clip-rule="evenodd" fill="none" stroke="#000000" stroke-width="0.5" stroke-linecap="round" stroke-linejoin="round" stroke-miterlimit="10" d="
			M9.906-4.388c0.115,0.487,0.413,0.897,0.537,1.39c0.168,0.669,0.297,1.34,0.328,2.024c0.028,0.625,0.051,1.251,0.015,1.881
			c-0.05,0.877-0.148,1.745-0.275,2.614c-0.11,0.748-0.276,1.483-0.396,2.228"/>
		
			<path fill-rule="evenodd" clip-rule="evenodd" fill="none" stroke="#000000" stroke-width="0.5" stroke-linecap="round" stroke-linejoin="round" stroke-miterlimit="10" d="
			M14.852,7.804C14.74,7.748,14.62,7.77,14.504,7.77c-3.089-0.001-6.177-0.001-9.266-0.001c-0.477,0-0.953,0-1.445,0
			c0-0.662,0-1.289,0-1.951c4.058,0,8.099,0,12.156,0c0,0.662,0,1.289,0,1.92c-0.359,0.099-0.727-0.064-1.063,0.1"/>
		
			<path fill-rule="evenodd" clip-rule="evenodd" fill="none" stroke="#000000" stroke-width="0.5" stroke-linecap="round" stroke-linejoin="round" stroke-miterlimit="10" d="
			M3.984,0.002c0.747,1.294,2.038,1.774,3.345,2.226c0.072,0.025,0.162,0.003,0.243,0.003"/>
		
			<path fill-rule="evenodd" clip-rule="evenodd" fill="none" stroke="#000000" stroke-width="0.5" stroke-linecap="round" stroke-linejoin="round" stroke-miterlimit="10" d="
			M10.985,5.749c0.129-0.676,0.32-1.339,0.418-2.021c0.082-0.569,0.17-1.137,0.24-1.706c0.027-0.219,0.073-0.397,0.279-0.527
			c0.382-0.24,0.731-0.533,1.122-0.755c0.423-0.24,0.882-0.396,1.389-0.287c0.535,0.114,0.67,0.472,0.349,0.908
			c-0.539,0.731-1.34,1.072-2.129,1.42c-0.354,0.156-0.71,0.336-1.111,0.355"/>
		
			<path fill-rule="evenodd" clip-rule="evenodd" fill="none" stroke="#000000" stroke-width="0.5" stroke-linecap="round" stroke-linejoin="round" stroke-miterlimit="10" d="
			M4.193-0.138C5.238,0.489,6.283,1.117,7.33,1.741C7.377,1.77,7.444,1.766,7.502,1.778"/>
		
			<path fill-rule="evenodd" clip-rule="evenodd" fill="none" stroke="#000000" stroke-width="0.5" stroke-linecap="round" stroke-linejoin="round" stroke-miterlimit="10" d="
			M14.887,0.907c-0.64-0.108-1.195,0.151-1.74,0.422c-0.421,0.209-0.818,0.468-1.182,0.767c-0.092,0.077-0.174,0.108-0.283,0.1"/>
		
			<path fill-rule="evenodd" clip-rule="evenodd" fill="none" stroke="#000000" stroke-width="0.5" stroke-linecap="round" stroke-linejoin="round" stroke-miterlimit="10" d="
			M14.747,1.046c-0.545,0.313-1.091,0.627-1.637,0.94c-0.429,0.246-0.884,0.444-1.291,0.728c-0.053,0.037-0.138,0.027-0.207,0.038"
			/>
		
			<path fill-rule="evenodd" clip-rule="evenodd" fill="none" stroke="#000000" stroke-width="0.5" stroke-linecap="round" stroke-linejoin="round" stroke-miterlimit="10" d="
			M4.332-0.417c0.549,0.178,1.125,0.245,1.645,0.545c0.454,0.263,0.857,0.585,1.279,0.886c0.059,0.042,0.105,0.077,0.177,0.066"/>
		
			<path fill-rule="evenodd" clip-rule="evenodd" fill="none" stroke="#000000" stroke-width="0.5" stroke-linecap="round" stroke-linejoin="round" stroke-miterlimit="10" d="
			M14.957,0.907c0.381,0.271,0.42,0.657,0.104,1.011c-0.396,0.443-0.896,0.725-1.426,0.981c-0.643,0.311-1.313,0.539-1.989,0.757
			c-0.053,0.017-0.115,0.002-0.174,0.002"/>
		
			<path fill-rule="evenodd" clip-rule="evenodd" fill="none" stroke="#000000" stroke-width="0.5" stroke-linecap="round" stroke-linejoin="round" stroke-miterlimit="10" d="
			M11.787,1.569c-0.157-0.291-0.014-0.585,0.009-0.87c0.1-1.197,0.054-2.394-0.243-3.547c-0.157-0.612-0.481-1.276-1.164-1.489
			C9.473-4.622,8.533-4.53,7.952-3.484C7.613-2.873,7.499-2.207,7.437-1.531C7.348-0.565,7.423,0.396,7.525,1.361
			c0.103,0.974,0.262,1.935,0.466,2.89C8.099,4.752,8.222,5.25,8.339,5.749"/>
		
			<path fill-rule="evenodd" clip-rule="evenodd" fill="none" stroke="#000000" stroke-width="0.5" stroke-linecap="round" stroke-linejoin="round" stroke-miterlimit="10" d="
			M7.606,2.788C6.375,2.51,5.215,2.068,4.231,1.251c-0.325-0.27-0.602-0.634-0.408-1.07c0.229-0.516,0.589-0.937,1.241-0.949
			c0.779-0.015,1.388,0.378,1.983,0.806c0.1,0.072,0.174,0.179,0.315,0.172"/>
		
			<path fill-rule="evenodd" clip-rule="evenodd" fill="none" stroke="#000000" stroke-width="0.5" stroke-linecap="round" stroke-linejoin="round" stroke-miterlimit="10" d="
			M8.164-3.97C8.012-4.063,7.896-4.241,7.677-4.179"/>
		
			<path fill-rule="evenodd" clip-rule="evenodd" fill="none" stroke="#000000" stroke-width="0.5" stroke-linecap="round" stroke-linejoin="round" stroke-miterlimit="10" d="
			M4.751-1.148C4.938-1.097,4.834-0.9,4.925-0.8"/>
		
			<path fill-rule="evenodd" clip-rule="evenodd" fill="none" stroke="#000000" stroke-width="0.5" stroke-linecap="round" stroke-linejoin="round" stroke-miterlimit="10" d="
			M14.121-0.034c0,0.14,0,0.279,0,0.418"/>
		
			<path fill-rule="evenodd" clip-rule="evenodd" fill="none" stroke="#000000" stroke-width="0.5" stroke-linecap="round" stroke-linejoin="round" stroke-miterlimit="10" d="
			M11.961,3.624c0.011,0.128,0.023,0.255,0.035,0.383"/>
		
			<path fill-rule="evenodd" clip-rule="evenodd" fill="none" stroke="#000000" stroke-width="0.5" stroke-linecap="round" stroke-linejoin="round" stroke-miterlimit="10" d="
			M13.006,0.245c-0.011,0.148,0.121,0.245,0.139,0.383"/>
		
			<path fill-rule="evenodd" clip-rule="evenodd" fill="none" stroke="#000000" stroke-width="0.5" stroke-linecap="round" stroke-linejoin="round" stroke-miterlimit="10" d="
			M14.329,2.683c0.116,0.063,0.091,0.249,0.244,0.279"/>
	</g>
	
		<path display="inline" fill-rule="evenodd" clip-rule="evenodd" fill="none" stroke="#000000" stroke-width="2" stroke-linecap="round" stroke-linejoin="round" stroke-miterlimit="10" d="
		M550.1,620.057c1.752,11.023,3.48,22.055,5.188,33.082c1.52,9.813,3.277,19.605,4.363,29.486c0.193,1.76,0.736,2.502,2.535,2.5
		c26.66-0.025,53.32-0.016,79.98-0.031c0.119,0,0.236-0.223,0.717-0.703c2.09-14.063,4.133-28.551,6.438-42.998
		c1.133-7.102,2.621-14.146,3.154-21.336"/>
	
		<path display="inline" fill-rule="evenodd" clip-rule="evenodd" fill="none" stroke="#000000" stroke-width="2" stroke-linecap="round" stroke-linejoin="round" stroke-miterlimit="10" d="
		M620.482,598.373c1.146,1.102,2.582,0.693,3.91,0.697c11.73,0.025,23.461,0.014,35.191,0.014c1.197,0,2.393,0,3.732,0
		c0,6.754,0,13.152,0,19.906c-4.912,0-9.654,0-14.396,0c-31.756,0-63.51,0-95.266,0c-3.91,0-7.822-0.051-11.73,0.023
		c-1.82,0.033-2.896-0.408-2.867-2.512c0.07-4.975,0.084-9.953-0.004-14.928c-0.043-2.453,1.459-2.504,3.227-2.5
		c9.479,0.021,18.959,0.01,28.438,0.01c14.219,0,28.438-0.047,42.656,0.035c3.34,0.02,6.063-0.736,8.584-3.178
		c5.711-5.529,10.957-11.299,13.822-18.893c3.469-9.193,3.896-18.566,1.738-28.08c-0.684-3.02-1.996-5.773-3.367-8.613
		c-6.938-14.371-18.572-21.82-33.943-23.242c-10.355-0.959-19.848,2.6-27.668,9.506c-10.273,9.072-15.42,20.729-15.273,34.43
		c0.137,12.889,5.074,23.863,14.547,32.672c1.482,1.377,3.094,2.596,4.236,4.297"/>
	
		<path display="inline" fill-rule="evenodd" clip-rule="evenodd" fill="none" stroke="#000000" stroke-width="2" stroke-linecap="round" stroke-linejoin="round" stroke-miterlimit="10" d="
		M598.088,523.014c0,23.936,0,47.869,0,71.805"/>
	
		<path display="inline" fill-rule="evenodd" clip-rule="evenodd" fill="none" stroke="#000000" stroke-width="2" stroke-linecap="round" stroke-linejoin="round" stroke-miterlimit="10" d="
		M583.158,528.701c-2.715,8.35-5.08,16.838-5.592,25.6c-0.637,10.916-0.064,21.814,3.453,32.344c0.748,2.24,1.428,4.5,2.139,6.752"
		/>
	
		<path display="inline" fill-rule="evenodd" clip-rule="evenodd" fill="none" stroke="#000000" stroke-width="2" stroke-linecap="round" stroke-linejoin="round" stroke-miterlimit="10" d="
		M615.861,529.412c3.398,10.762,5.926,21.719,5.617,33.057c-0.271,9.979-1.365,19.893-5.588,29.164
		c-0.225,0.49-0.029,1.172-0.029,1.764"/>
	
		<path display="inline" fill-rule="evenodd" clip-rule="evenodd" fill="none" stroke="#000000" stroke-width="2" stroke-linecap="round" stroke-linejoin="round" stroke-miterlimit="10" d="
		M637.189,544.697c2.666,0.088,4.734,2.018,7.461,2.193c8.289,0.535,13.139-3.637,16.285-10.047
		c3.031-6.178,1.717-12.357-2.145-17.682c-3.828-5.279-9.318-7.355-15.918-6.117c-5.516,1.037-11.332,6.336-12.398,13.885
		c-0.225,1.596-0.551,3.121-1.105,4.615"/>
	
		<path display="inline" fill-rule="evenodd" clip-rule="evenodd" fill="none" stroke="#000000" stroke-width="2" stroke-linecap="round" stroke-linejoin="round" stroke-miterlimit="10" d="
		M653.541,518.748c-8.404,1.416-15.334,5.348-20.617,12.086"/>
	
		<path display="inline" fill-rule="evenodd" clip-rule="evenodd" fill="none" stroke="#000000" stroke-width="2" stroke-linecap="round" stroke-linejoin="round" stroke-miterlimit="10" d="
		M658.518,530.834c-4.975,6.195-11.619,9.572-19.195,11.375"/>
	
		<path display="inline" fill-rule="evenodd" clip-rule="evenodd" fill="none" stroke="#000000" stroke-width="2" stroke-linecap="round" stroke-linejoin="round" stroke-miterlimit="10" d="
		M654.963,525.146c-6.162,3.555-12.322,7.109-18.484,10.664"/>
	
		<path display="inline" fill-rule="evenodd" clip-rule="evenodd" fill="none" stroke="#000000" stroke-width="2" stroke-linecap="round" stroke-linejoin="round" stroke-miterlimit="10" d="
		M644.299,560.693c-1.498,0.67-3.08,0.238-4.621,0.355"/>
	
		<path display="inline" fill-rule="evenodd" clip-rule="evenodd" fill="none" stroke="#000000" stroke-width="2" stroke-linecap="round" stroke-linejoin="round" stroke-miterlimit="10" d="
		M556.854,556.428c-1.422-0.119-2.844-0.236-4.266-0.355"/>
	
		<path display="inline" fill-rule="evenodd" clip-rule="evenodd" fill="none" stroke="#000000" stroke-width="2" stroke-linecap="round" stroke-linejoin="round" stroke-miterlimit="10" d="
		M560.764,531.9c1.303,0.947,2.607,1.896,3.91,2.844"/>
	
		<path display="inline" fill-rule="evenodd" clip-rule="evenodd" fill="none" stroke="#000000" stroke-width="2" stroke-linecap="round" stroke-linejoin="round" stroke-miterlimit="10" d="
		M659.229,512.705c-1.648,0.391-2.9,1.203-3.199,3.021"/>
	
		<path display="inline" fill-rule="evenodd" clip-rule="evenodd" fill="none" stroke="#000000" stroke-width="2" stroke-linecap="round" stroke-linejoin="round" stroke-miterlimit="10" d="
		M614.795,515.904c0.111,1.518-1.232,2.504-1.422,3.91"/>
</g>
<g id="cactus2" display="none">
	
		<path display="inline" fill-rule="evenodd" clip-rule="evenodd" fill="none" stroke="#000000" stroke-width="0.5" stroke-linecap="round" stroke-linejoin="round" stroke-miterlimit="10" d="
		M4.217,7.396c0.194,1.22,0.385,2.44,0.574,3.661c0.169,1.086,0.363,2.169,0.482,3.263c0.021,0.195,0.082,0.277,0.281,0.277
		c2.95-0.003,5.9-0.002,8.85-0.003c0.014,0,0.026-0.024,0.08-0.078c0.231-1.556,0.457-3.159,0.712-4.758
		c0.125-0.786,0.29-1.565,0.349-2.361"/>
	
		<path display="inline" fill-rule="evenodd" clip-rule="evenodd" fill="none" stroke="#000000" stroke-width="0.5" stroke-linecap="round" stroke-linejoin="round" stroke-miterlimit="10" d="
		M12.005,4.996c0.127,0.122,0.286,0.077,0.433,0.077c1.298,0.003,2.597,0.002,3.894,0.002c0.133,0,0.265,0,0.413,0
		c0,0.748,0,1.456,0,2.203c-0.544,0-1.068,0-1.593,0c-3.514,0-7.027,0-10.542,0c-0.433,0-0.865-0.005-1.298,0.002
		c-0.201,0.004-0.32-0.045-0.317-0.277c0.008-0.551,0.01-1.102,0-1.652C2.99,5.079,3.156,5.073,3.352,5.074
		C4.4,5.077,5.449,5.075,6.499,5.075c1.573,0,3.146-0.005,4.72,0.004c0.37,0.003,0.671-0.082,0.95-0.352
		c0.632-0.612,1.212-1.25,1.529-2.091c0.384-1.018,0.432-2.054,0.192-3.107c-0.076-0.334-0.221-0.638-0.373-0.953
		c-0.767-1.59-2.055-2.415-3.756-2.572C8.616-4.102,7.565-3.707,6.7-2.944C5.563-1.939,4.994-0.65,5.011,0.866
		c0.015,1.427,0.561,2.641,1.608,3.615c0.164,0.153,0.343,0.288,0.469,0.476"/>
	
		<path display="inline" fill-rule="evenodd" clip-rule="evenodd" fill="none" stroke="#000000" stroke-width="0.5" stroke-linecap="round" stroke-linejoin="round" stroke-miterlimit="10" d="
		M9.527-3.342c0,2.648,0,5.296,0,7.945"/>
	
		<path display="inline" fill-rule="evenodd" clip-rule="evenodd" fill="none" stroke="#000000" stroke-width="0.5" stroke-linecap="round" stroke-linejoin="round" stroke-miterlimit="10" d="
		M7.876-2.713C7.575-1.789,7.313-0.85,7.257,0.12C7.186,1.328,7.25,2.534,7.639,3.699c0.083,0.247,0.158,0.498,0.237,0.747"/>
	
		<path display="inline" fill-rule="evenodd" clip-rule="evenodd" fill="none" stroke="#000000" stroke-width="0.5" stroke-linecap="round" stroke-linejoin="round" stroke-miterlimit="10" d="
		M11.494-2.634c0.376,1.19,0.656,2.403,0.621,3.658c-0.029,1.104-0.151,2.202-0.618,3.228c-0.024,0.054-0.003,0.129-0.003,0.195"/>
	
		<path display="inline" fill-rule="evenodd" clip-rule="evenodd" fill="none" stroke="#000000" stroke-width="0.5" stroke-linecap="round" stroke-linejoin="round" stroke-miterlimit="10" d="
		M13.854-0.943c0.295,0.01,0.523,0.223,0.825,0.242c0.918,0.06,1.454-0.402,1.803-1.111c0.335-0.684,0.189-1.368-0.238-1.957
		c-0.423-0.584-1.03-0.814-1.761-0.677c-0.61,0.114-1.254,0.701-1.372,1.536c-0.025,0.177-0.062,0.345-0.123,0.511"/>
	
		<path display="inline" fill-rule="evenodd" clip-rule="evenodd" fill="none" stroke="#000000" stroke-width="0.5" stroke-linecap="round" stroke-linejoin="round" stroke-miterlimit="10" d="
		M15.664-3.814c-0.931,0.156-1.697,0.591-2.282,1.337"/>
	
		<path display="inline" fill-rule="evenodd" clip-rule="evenodd" fill="none" stroke="#000000" stroke-width="0.5" stroke-linecap="round" stroke-linejoin="round" stroke-miterlimit="10" d="
		M16.215-2.477c-0.551,0.686-1.286,1.059-2.125,1.259"/>
	
		<path display="inline" fill-rule="evenodd" clip-rule="evenodd" fill="none" stroke="#000000" stroke-width="0.5" stroke-linecap="round" stroke-linejoin="round" stroke-miterlimit="10" d="
		M15.821-3.107c-0.682,0.394-1.364,0.788-2.046,1.181"/>
	
		<path display="inline" fill-rule="evenodd" clip-rule="evenodd" fill="none" stroke="#000000" stroke-width="0.5" stroke-linecap="round" stroke-linejoin="round" stroke-miterlimit="10" d="
		M14.641,0.827C14.475,0.901,14.3,0.853,14.13,0.866"/>
	
		<path display="inline" fill-rule="evenodd" clip-rule="evenodd" fill="none" stroke="#000000" stroke-width="0.5" stroke-linecap="round" stroke-linejoin="round" stroke-miterlimit="10" d="
		M4.965,0.356C4.807,0.342,4.65,0.329,4.492,0.315"/>
	
		<path display="inline" fill-rule="evenodd" clip-rule="evenodd" fill="none" stroke="#000000" stroke-width="0.5" stroke-linecap="round" stroke-linejoin="round" stroke-miterlimit="10" d="
		M5.397-2.359C5.542-2.254,5.686-2.149,5.83-2.044"/>
	
		<path display="inline" fill-rule="evenodd" clip-rule="evenodd" fill="none" stroke="#000000" stroke-width="0.5" stroke-linecap="round" stroke-linejoin="round" stroke-miterlimit="10" d="
		M16.293-4.483c-0.183,0.044-0.321,0.133-0.354,0.334"/>
	
		<path display="inline" fill-rule="evenodd" clip-rule="evenodd" fill="none" stroke="#000000" stroke-width="0.5" stroke-linecap="round" stroke-linejoin="round" stroke-miterlimit="10" d="
		M11.376-4.129c0.013,0.168-0.136,0.277-0.157,0.432"/>
</g>
<g id="cactus3" display="none">
	<g display="inline">
		
			<path fill-rule="evenodd" clip-rule="evenodd" fill="none" stroke="#000000" stroke-width="0.5" stroke-linecap="round" stroke-linejoin="round" stroke-miterlimit="10" d="
			M4.294,7.953C4.647,10.297,5.002,12.64,5.359,15c3.003,0,5.988,0,8.99,0c0.357-2.36,0.711-4.703,1.065-7.047"/>
		
			<path fill-rule="evenodd" clip-rule="evenodd" fill="none" stroke="#000000" stroke-width="0.5" stroke-linecap="round" stroke-linejoin="round" stroke-miterlimit="10" d="
			M10.665,5.56c0.125,0.159,0.302,0.114,0.464,0.115c1.686,0.002,3.373,0,5.057,0c0.131,0,0.261,0,0.406,0c0,0.734,0,1.429,0,2.182
			c-4.499,0-8.978,0-13.475,0c0-0.753,0-1.448,0-2.182c0.147,0,0.276,0,0.405,0c1.673,0,3.347,0.01,5.02-0.005
			c0.591-0.005,1.184-0.102,1.776-0.098c0.28,0.002,0.401-0.215,0.617-0.284c0.716-0.226,1.382-0.566,2.002-0.973
			c1.102-0.723,2.093-1.585,2.505-2.891c0.47-1.486-0.202-2.737-1.841-3.091c-1.124-0.242-2.022,0.181-2.859,0.855
			c-0.063,0.051-0.127,0.105-0.212,0.175c-0.286-0.298-0.444-0.697-0.788-0.952C8.809-2.283,7.823-2.607,6.688-2.123
			C6.621-2.094,6.559-2.088,6.495-2.124"/>
		
			<path fill-rule="evenodd" clip-rule="evenodd" fill="none" stroke="#000000" stroke-width="0.5" stroke-linecap="round" stroke-linejoin="round" stroke-miterlimit="10" d="
			M14.681-1.275c0.288-0.345,0.742-0.466,1.051-0.803c0.516-0.561,0.565-1.356-0.017-1.812c-0.408-0.319-0.931-0.322-1.416-0.154
			c-0.162,0.057-0.362,0.122-0.468,0.297"/>
		
			<path fill-rule="evenodd" clip-rule="evenodd" fill="none" stroke="#000000" stroke-width="0.5" stroke-linecap="round" stroke-linejoin="round" stroke-miterlimit="10" d="
			M4.661-3.321c-0.034-0.53,0.232-0.916,0.681-1.107c0.581-0.248,1.244,0.317,1.275,0.991c0.021,0.439-0.099,0.854-0.176,1.272
			c-0.057,0.313-0.39,0.474-0.607,0.694C5.397-1.026,5.256-0.448,5.283,0.114C5.312,0.699,5.507,1.29,5.805,1.812
			C6.514,3.05,7.423,4.125,8.539,5.023C8.728,5.175,8.876,5.379,9.044,5.56"/>
		
			<path fill-rule="evenodd" clip-rule="evenodd" fill="none" stroke="#000000" stroke-width="0.5" stroke-linecap="round" stroke-linejoin="round" stroke-miterlimit="10" d="
			M13.908-3.862c-0.232-0.222-0.303-0.553-0.609-0.747c-0.439-0.279-0.864-0.353-1.318-0.136c-0.529,0.252-0.681,0.721-0.618,1.269
			c0.076,0.668,0.452,1.21,0.77,1.776"/>
		
			<path fill-rule="evenodd" clip-rule="evenodd" fill="none" stroke="#000000" stroke-width="0.5" stroke-linecap="round" stroke-linejoin="round" stroke-miterlimit="10" d="
			M4.564-3.398C4.145-3.393,3.716-3.453,3.402-3.054c-0.339,0.432-0.218,1.015,0.272,1.28C4.16-1.511,4.682-1.421,5.221-1.392
			c0.137,0.007,0.278-0.011,0.406,0.059"/>
		
			<path fill-rule="evenodd" clip-rule="evenodd" fill="none" stroke="#000000" stroke-width="0.5" stroke-linecap="round" stroke-linejoin="round" stroke-miterlimit="10" d="
			M5.221,0.076C5.027,0.064,4.835,0.051,4.642,0.038"/>
		
			<path fill-rule="evenodd" clip-rule="evenodd" fill="none" stroke="#000000" stroke-width="0.5" stroke-linecap="round" stroke-linejoin="round" stroke-miterlimit="10" d="
			M5.259-4.904c-0.067,0.17,0.066,0.286,0.117,0.425"/>
	</g>
</g>
<g id="Capa_4" display="none">
	<g id="XMLID_9_" display="inline">
		<path id="XMLID_13_" fill="#231F20" d="M14.112,5.187c0.074-0.249,0.111-0.505,0.111-0.761c0-1.773-1.75-3.217-3.9-3.217
			c-2.152,0-3.901,1.444-3.901,3.217c0,0.255,0.037,0.512,0.11,0.761c0.104,0.521,0.247,0.942,0.426,1.251
			c0.384,0.664,1.996,2.856,2.737,3.854c-1.001,0.106-1.467,0.461-1.467,0.796c0,0.398,0.656,0.827,2.095,0.827
			c1.438,0,2.094-0.429,2.094-0.827c0-0.334-0.465-0.69-1.466-0.796c0.74-0.998,2.354-3.19,2.737-3.854
			C13.864,6.129,14.007,5.708,14.112,5.187z M11.813,11.088c-0.041,0.093-0.544,0.33-1.49,0.33c-0.957,0-1.462-0.242-1.492-0.327
			c0.027-0.083,0.438-0.286,1.215-0.327c0.009,0.013,0.017,0.021,0.02,0.027c0.055,0.074,0.152,0.118,0.257,0.118
			s0.201-0.044,0.256-0.118c0.004-0.005,0.01-0.014,0.02-0.027C11.366,10.806,11.776,11.004,11.813,11.088z M7.5,6.225
			C7.349,5.96,7.218,5.57,7.125,5.096C7.122,5.09,7.122,5.084,7.119,5.078C7.056,4.864,7.022,4.645,7.022,4.426
			c0-1.5,1.48-2.721,3.3-2.721c1.819,0,3.299,1.22,3.299,2.721c0,0.219-0.034,0.438-0.097,0.652
			c-0.002,0.006-0.003,0.012-0.004,0.018c-0.093,0.474-0.224,0.864-0.376,1.128c-0.387,0.67-2.153,3.063-2.821,3.962
			C9.654,9.288,7.889,6.895,7.5,6.225z"/>
		<path id="XMLID_10_" fill="#231F20" d="M10.323,2.607c-1.155,0-2.095,0.774-2.095,1.726c0,0.953,0.94,1.728,2.095,1.728
			c1.154,0,2.094-0.775,2.094-1.728C12.417,3.381,11.477,2.607,10.323,2.607z M8.831,4.333c0-0.678,0.669-1.229,1.492-1.229
			s1.491,0.552,1.491,1.229c0,0.679-0.668,1.23-1.491,1.23S8.831,5.012,8.831,4.333z"/>
	</g>
</g>
<g id="Capa_7" display="none">
	<g id="XMLID_37_" display="inline">
		<path id="XMLID_66_" fill="#231F20" d="M8.563,4.264h4.319c0.082,0,0.147-0.067,0.147-0.149c0-0.081-0.065-0.148-0.147-0.148
			H8.563c-0.081,0-0.148,0.067-0.148,0.148C8.415,4.197,8.482,4.264,8.563,4.264z"/>
		<path id="XMLID_65_" fill="#231F20" d="M13.03,5.417c0-0.082-0.065-0.147-0.147-0.147H8.563c-0.081,0-0.148,0.066-0.148,0.147
			s0.067,0.148,0.148,0.148h4.319C12.965,5.564,13.03,5.498,13.03,5.417z"/>
		<path id="XMLID_56_" fill="#231F20" d="M16.254,5.052l-1.823-1.335V3.395c0-0.644-0.544-1.167-1.211-1.167h-0.823l-1.472-1.079
			c-0.079-0.057-0.183-0.057-0.261,0L9.191,2.227H8.368c-0.669,0-1.211,0.523-1.211,1.167v0.322L5.333,5.052
			C5.276,5.094,5.243,5.16,5.242,5.23c0,0.013,0.003,0.025,0.004,0.038c0,0.01-0.004,0.02-0.004,0.03v5.525
			c0,0.033,0.009,0.063,0.022,0.091c-0.023,0.05-0.029,0.108-0.01,0.162c0.03,0.09,0.115,0.15,0.209,0.15h10.66
			c0.094,0,0.179-0.061,0.209-0.151c0.019-0.054,0.012-0.111-0.011-0.162c0.013-0.028,0.022-0.059,0.022-0.091V5.297
			c0-0.01-0.002-0.02-0.004-0.029c0.002-0.013,0.004-0.026,0.004-0.039C16.344,5.159,16.31,5.094,16.254,5.052z M14.431,4.267
			l1.324,0.969l-1.277,0.985l-0.047,0.035V4.267z M10.793,1.603l0.852,0.625H9.941L10.793,1.603z M7.6,3.395
			c0-0.399,0.345-0.724,0.769-0.724h4.852c0.424,0,0.768,0.325,0.768,0.724v3.183l-1.743,1.268
			c-0.029,0.007-0.058,0.018-0.083,0.037l-1.354,1.026L9.389,7.88l0,0l0,0L7.6,6.578V3.395z M7.157,4.266v1.947l-1.32-0.98
			L7.157,4.266z M5.686,5.733L8.882,8.06l-3.196,2.327V5.733z M6.112,10.782l3.151-2.445l1.417,1.027
			c0.078,0.057,0.185,0.056,0.263-0.002l1.351-1.023l3.177,2.443H6.112z M15.902,10.387L12.705,8.06l3.197-2.327V10.387z"/>
	</g>
</g>
<g id="whatsapp" display="none">
	<g display="inline">
		<path fill-rule="evenodd" clip-rule="evenodd" fill="#FFFFFF" d="M5.131,12.036c0.041-0.007,0.06-0.009,0.077-0.016
			c0.861-0.225,1.725-0.45,2.583-0.681c0.126-0.035,0.23-0.023,0.346,0.036c1.016,0.51,2.092,0.68,3.212,0.513
			c1.115-0.167,2.097-0.632,2.896-1.424c1.502-1.486,2.016-3.283,1.479-5.326c-0.717-2.722-3.521-4.5-6.455-3.792
			c-2.225,0.54-3.863,2.438-4.077,4.71c-0.101,1.09,0.105,2.128,0.639,3.094c0.04,0.076,0.047,0.143,0.024,0.225
			c-0.232,0.836-0.462,1.673-0.69,2.509C5.151,11.928,5.146,11.973,5.131,12.036z"/>
		<path fill-rule="evenodd" clip-rule="evenodd" d="M5.131,12.036c0.015-0.063,0.021-0.108,0.034-0.151
			c0.229-0.835,0.458-1.673,0.69-2.509c0.022-0.083,0.016-0.149-0.024-0.225C5.298,8.185,5.092,7.147,5.192,6.057
			c0.214-2.272,1.853-4.171,4.077-4.71c2.935-0.707,5.738,1.071,6.455,3.792c0.537,2.043,0.023,3.839-1.479,5.326
			c-0.799,0.792-1.782,1.257-2.896,1.424c-1.12,0.167-2.196-0.003-3.212-0.513c-0.116-0.06-0.219-0.071-0.346-0.036
			c-0.859,0.231-1.722,0.456-2.583,0.681C5.19,12.027,5.172,12.029,5.131,12.036z M6.428,10.745
			c0.051-0.008,0.079-0.011,0.104-0.019c0.459-0.119,0.92-0.232,1.374-0.361c0.149-0.042,0.259-0.021,0.39,0.055
			c1.007,0.583,2.084,0.758,3.216,0.506c2.37-0.525,3.889-2.845,3.41-5.223C14.33,2.75,11.076,1.207,8.405,2.659
			C6.604,3.643,5.711,5.725,6.227,7.696c0.124,0.471,0.317,0.91,0.586,1.317c0.045,0.067,0.059,0.13,0.033,0.209
			C6.809,9.337,6.78,9.456,6.748,9.573C6.641,9.958,6.538,10.341,6.428,10.745z"/>
		<path fill-rule="evenodd" clip-rule="evenodd" fill="#FFFFFF" d="M6.106,11.071c0.119-0.436,0.229-0.851,0.346-1.266
			c0.033-0.126,0.065-0.254,0.106-0.38C6.586,9.341,6.57,9.272,6.522,9.2C6.231,8.76,6.021,8.286,5.888,7.778
			c-0.557-2.131,0.408-4.38,2.354-5.443c2.885-1.569,6.4,0.099,7.041,3.288c0.517,2.569-1.124,5.076-3.685,5.644
			c-1.222,0.273-2.386,0.083-3.474-0.547c-0.142-0.081-0.261-0.104-0.421-0.059c-0.49,0.14-0.989,0.262-1.484,0.39
			C6.191,11.06,6.161,11.063,6.106,11.071z M7.523,5.159C7.528,5.25,7.526,5.343,7.545,5.432c0.023,0.125,0.052,0.249,0.086,0.369
			c0.111,0.352,0.301,0.662,0.497,0.971C8.416,7.217,8.736,7.632,9.1,8.015c0.677,0.712,1.522,1.138,2.44,1.43
			c0.493,0.157,0.964,0.105,1.417-0.165c0.395-0.236,0.553-0.584,0.577-1.021c0.007-0.132-0.044-0.208-0.154-0.265
			c-0.275-0.142-0.547-0.291-0.82-0.435c-0.123-0.063-0.244-0.127-0.367-0.179c-0.153-0.063-0.217-0.039-0.32,0.081
			c-0.137,0.165-0.275,0.325-0.419,0.484c-0.147,0.164-0.239,0.186-0.439,0.094c-0.113-0.055-0.224-0.119-0.335-0.181
			C9.994,7.472,9.484,6.914,9.104,6.231C9.047,6.128,9.05,6.038,9.118,5.947C9.176,5.865,9.243,5.791,9.31,5.711
			c0.075-0.093,0.153-0.187,0.226-0.285C9.594,5.343,9.601,5.248,9.566,5.15C9.421,4.762,9.274,4.373,9.129,3.984
			c-0.04-0.106-0.113-0.178-0.212-0.228C8.67,3.634,8.306,3.683,8.101,3.867C7.723,4.214,7.524,4.641,7.523,5.159z"/>
		<path fill-rule="evenodd" clip-rule="evenodd" d="M7.74,5.272c0.001-0.479,0.185-0.875,0.536-1.196
			c0.188-0.17,0.525-0.215,0.754-0.102c0.093,0.046,0.159,0.112,0.196,0.211c0.135,0.359,0.27,0.719,0.404,1.079
			C9.663,5.354,9.658,5.442,9.602,5.52C9.535,5.611,9.463,5.698,9.393,5.784C9.333,5.857,9.27,5.926,9.216,6.002
			C9.153,6.085,9.151,6.169,9.203,6.265c0.352,0.632,0.824,1.147,1.459,1.507c0.103,0.057,0.204,0.117,0.31,0.167
			c0.187,0.085,0.271,0.065,0.406-0.087c0.134-0.146,0.262-0.294,0.389-0.447c0.096-0.112,0.154-0.133,0.296-0.076
			c0.114,0.048,0.227,0.107,0.339,0.165c0.253,0.134,0.504,0.271,0.759,0.403c0.103,0.053,0.149,0.124,0.143,0.245
			c-0.022,0.404-0.168,0.727-0.534,0.945c-0.42,0.25-0.857,0.297-1.313,0.152C10.608,8.97,9.825,8.575,9.2,7.916
			C8.863,7.562,8.566,7.178,8.3,6.765C8.118,6.48,7.943,6.192,7.841,5.867c-0.032-0.111-0.06-0.226-0.08-0.341
			C7.744,5.442,7.746,5.357,7.74,5.272z"/>
	</g>
</g>
</svg>
