<?xml version="1.0" encoding="utf-8"?>
<!-- Generator: Adobe Illustrator 16.0.3, SVG Export Plug-In . SVG Version: 6.00 Build 0)  -->
<!DOCTYPE svg PUBLIC "-//W3C//DTD SVG 1.1//EN" "http://www.w3.org/Graphics/SVG/1.1/DTD/svg11.dtd">
<svg version="1.1" xmlns="http://www.w3.org/2000/svg" xmlns:xlink="http://www.w3.org/1999/xlink" x="0px" y="0px"
	 width="20.667px" height="26.833px" viewBox="0 0 20.667 26.833" enable-background="new 0 0 20.667 26.833" xml:space="preserve">
<g id="Capa_9" display="none">
	<g display="inline">
		
			<path fill-rule="evenodd" clip-rule="evenodd" fill="none" stroke="#000000" stroke-width="2" stroke-linecap="round" stroke-linejoin="round" stroke-miterlimit="10" d="
			M3.448,31.092c0.261-2.196-0.479-3.81-0.836-5.677c-0.064-0.332-0.128-0.665-0.198-0.996c-0.092-0.442-0.189-0.883-0.307-1.319
			c-0.252-0.938-0.53-1.868-0.826-2.792c-0.87-2.722-0.321-5.958-0.122-8.944c0.177-2.659-0.768-3.531-3.423-3.431
			c-4.869,0.184-9.753,0.15-14.624,0.01c-2.32-0.066-3.104,0.726-3.047,3.044c0.112,4.524,0.781,9.293-1.241,13.421
			c-1.149,2.345-1.313,4.486-1.327,6.83c-0.022,3.708,2.768,5.772,6.35,4.461c1.591-0.583,3.946-1.021,5.634-1.171
			c1.648-0.147,3.857,0.219,5.485,0.52c2.563,0.473,4.8,1.838,6.943-0.469C2.326,34.128,3.187,33.288,3.448,31.092z"/>
		
			<path fill-rule="evenodd" clip-rule="evenodd" fill="none" stroke="#000000" stroke-width="2" stroke-linecap="round" stroke-linejoin="round" stroke-miterlimit="10" d="
			M-19.515,20.736c4.25,0,8.506-0.119,12.75,0.041c2.974,0.112,3.044-1.574,3.049-3.791c0.005-2.209-0.305-3.755-3.05-3.396
			c-0.983,0.128-1.997,0.021-2.998,0.021c-5.824,0-6.336,0.622-5.25,6.376"/>
		
			<path fill-rule="evenodd" clip-rule="evenodd" fill="none" stroke="#000000" stroke-width="2" stroke-linecap="round" stroke-linejoin="round" stroke-miterlimit="10" d="
			M-20.64,25.237c7.626,0.621,15.252,0.622,22.878,0"/>
		
			<path fill-rule="evenodd" clip-rule="evenodd" fill="none" stroke="#000000" stroke-width="2" stroke-linecap="round" stroke-linejoin="round" stroke-miterlimit="10" d="
			M10.489,9.86c0,6.501,0,13.002,0,19.502"/>
		
			<path fill-rule="evenodd" clip-rule="evenodd" fill="none" stroke="#000000" stroke-width="2" stroke-linecap="round" stroke-linejoin="round" stroke-miterlimit="10" d="
			M14.99,7.984c-0.5-1.5-0.846-3.078-1.55-4.475c-0.545-1.08-1.285-1.997-2.951-1.997c-1.666,0-2.425,0.913-2.945,1.998
			C6.868,4.919,6.585,6.516,6.033,8.372c2.785,0.788,5.61,2.081,8.582-0.012"/>
		
			<path fill-rule="evenodd" clip-rule="evenodd" fill="none" stroke="#000000" stroke-width="2" stroke-linecap="round" stroke-linejoin="round" stroke-miterlimit="10" d="
			M12.74,9.86c0,1.625,0,3.25,0,4.875"/>
		
			<path fill-rule="evenodd" clip-rule="evenodd" fill="none" stroke="#000000" stroke-width="2" stroke-linecap="round" stroke-linejoin="round" stroke-miterlimit="10" d="
			M0.738,20.736c-1.37-0.179-2.809,0.389-4.125-0.375"/>
		
			<path fill-rule="evenodd" clip-rule="evenodd" fill="none" stroke="#000000" stroke-width="2" stroke-linecap="round" stroke-linejoin="round" stroke-miterlimit="10" d="
			M13.865,30.113c-2.25,0-4.501,0-6.751,0"/>
	</g>
	
		<path display="inline" fill-rule="evenodd" clip-rule="evenodd" fill="none" stroke="#000000" stroke-width="2" stroke-linecap="round" stroke-linejoin="round" stroke-miterlimit="10" d="
		M43.448,31.092c0.261-2.196-0.479-3.81-0.836-5.677c-0.064-0.332-0.128-0.665-0.198-0.996c-0.092-0.442-0.189-0.883-0.307-1.319
		c-0.252-0.938-0.53-1.868-0.826-2.792c-0.87-2.722-0.321-5.958-0.122-8.944c0.177-2.659-0.768-3.531-3.423-3.431
		c-4.869,0.184-9.753,0.15-14.624,0.01c-2.32-0.066-3.104,0.726-3.047,3.044c0.112,4.524,0.781,9.293-1.241,13.421
		c-1.149,2.345-1.313,4.486-1.327,6.83c-0.022,3.708,2.768,5.772,6.35,4.461c1.591-0.583,3.946-1.021,5.634-1.171
		c1.648-0.147,3.857,0.219,5.485,0.52c2.563,0.473,4.8,1.838,6.943-0.469C42.326,34.128,43.187,33.288,43.448,31.092z"/>
	
		<path display="inline" fill-rule="evenodd" clip-rule="evenodd" fill="none" stroke="#000000" stroke-width="2" stroke-linecap="round" stroke-linejoin="round" stroke-miterlimit="10" d="
		M20.485,20.736c4.25,0,8.506-0.119,12.75,0.041c2.974,0.112,3.044-1.574,3.049-3.791c0.005-2.209-0.305-3.755-3.05-3.396
		c-0.983,0.128-1.997,0.021-2.998,0.021c-5.824,0-6.336,0.622-5.25,6.376"/>
	
		<path display="inline" fill-rule="evenodd" clip-rule="evenodd" fill="none" stroke="#000000" stroke-width="2" stroke-linecap="round" stroke-linejoin="round" stroke-miterlimit="10" d="
		M19.36,25.237c7.626,0.621,15.252,0.622,22.878,0"/>
	
		<path display="inline" fill-rule="evenodd" clip-rule="evenodd" fill="none" stroke="#000000" stroke-width="2" stroke-linecap="round" stroke-linejoin="round" stroke-miterlimit="10" d="
		M40.738,20.736c-1.37-0.179-2.809,0.389-4.125-0.375"/>
</g>
<g id="Capa_3" display="none">
	<g id="XMLID_1_" display="inline">
		<path id="XMLID_2_" fill="#231F20" d="M27.91,10.741l-0.002-0.175h-0.793c-0.292-0.715-1.338-1.579-5.728-2.265
			c-3.309-0.517-7.7-0.801-12.364-0.801c-4.66,0-9.052,0.284-12.361,0.801c-4.436,0.693-5.467,1.572-5.743,2.3l-0.162,0.007
			l-0.006,0.979c0,6.448,2.376,12.508,6.535,16.698c-3.286,0.888-4.95,2.114-4.95,3.645c0,3.946,11.119,4.988,16.999,4.988
			s17-1.042,17-4.988c0-1.533-1.67-2.759-4.963-3.647c0.234-0.234,0.449-0.457,0.647-0.676c1.157,0.186,2.256,0.278,3.268,0.278
			c3.067,0,5.561-0.787,7.412-2.338c2.057-1.725,3.143-4.285,3.143-7.402C35.842,13.367,31.617,11.183,27.91,10.741z M27.703,14.878
			c1.518,0.424,3.207,1.387,3.207,3.572c0,1.789-0.596,3.233-1.722,4.179c-1.083,0.906-2.601,1.343-4.518,1.329
			C26.246,21.244,27.288,18.119,27.703,14.878z M9.023,9.337c8.669,0,14.635,0.985,16.126,1.782
			c-1.491,0.796-7.457,1.781-16.126,1.781c-8.666,0-14.632-0.984-16.123-1.781C-5.609,10.322,0.357,9.337,9.023,9.337z
			 M24.502,31.93c0,1.111-5.76,3.152-15.168,3.152S-5.834,33.041-5.834,31.93c0-0.45,1.272-1.392,4.765-2.164
			c3.082,2.468,6.678,3.771,10.404,3.771c3.718,0,7.309-1.304,10.393-3.773C23.228,30.535,24.502,31.48,24.502,31.93z M9.334,31.701
			c-8.821,0-16.101-8.199-16.705-18.734c0.94,0.375,2.267,0.692,4.032,0.969c3.31,0.517,7.701,0.802,12.361,0.802
			c4.664,0,9.055-0.285,12.364-0.802c2.202-0.346,3.739-0.758,4.673-1.261C25.586,23.376,18.307,31.701,9.334,31.701z
			 M31.523,24.138c-1.857,1.557-4.667,2.177-8.141,1.804c0.05-0.07,0.099-0.138,0.147-0.208c0.492,0.045,0.899,0.068,1.271,0.068
			c0.288,0,0.567-0.01,0.841-0.028c1.913-0.13,3.5-0.712,4.72-1.734c1.169-0.98,1.924-2.313,2.228-3.907
			c0.103-0.532,0.152-1.092,0.152-1.681c0-3.754-3.263-5.03-4.868-5.431c0.008-0.137,0.014-0.275,0.019-0.412
			c0.728,0.109,1.72,0.327,2.711,0.755c2.262,0.978,3.409,2.587,3.409,4.782C34.011,20.702,33.15,22.774,31.523,24.138z"/>
	</g>
</g>
<g id="Capa_5" display="none">
	<g id="XMLID_17_" display="inline">
		<path id="XMLID_18_" fill="#231F20" d="M20.988,34.167h23.701c0.46,0,0.881-0.269,1.083-0.693c0.202-0.423,0.15-0.926-0.133-1.299
			L26.581,7.159c-0.229-0.3-0.579-0.475-0.951-0.475c-0.371,0-0.723,0.174-0.95,0.475l-3.621,4.751
			c-1.489-2.955-4.497-4.986-7.965-4.986c-2.901,0-5.477,1.422-7.116,3.614l-6.753-9.155c-0.228-0.31-0.584-0.49-0.963-0.49
			c-0.378,0-0.733,0.181-0.962,0.49l-22.726,30.807c-0.273,0.374-0.32,0.874-0.115,1.292c0.202,0.418,0.621,0.683,1.078,0.683H6.571
			H20.988z M-1.738,4.174l20.307,27.526H9.04h-31.083L-1.738,4.174z M19.36,14.143l-5.449,7.149l-6.405-8.681
			c1.152-1.927,3.222-3.22,5.588-3.22C16.043,9.391,18.542,11.395,19.36,14.143z M21.588,31.701l-6.172-8.37L25.63,9.924
			l16.591,21.777H21.588z"/>
	</g>
</g>
<g id="Capa_8" display="none">
	<g id="XMLID_67_" display="inline">
		<path id="XMLID_77_" fill="#231F20" d="M5.665,33.85c0,2.406,1.957,4.363,4.362,4.363c2.404,0,4.36-1.958,4.36-4.363
			c0-2.403-1.956-4.361-4.36-4.361C7.622,29.489,5.665,31.447,5.665,33.85z M13.118,33.85c0,1.706-1.386,3.092-3.091,3.092
			c-1.706,0-3.092-1.386-3.092-3.092c0-1.703,1.386-3.092,3.092-3.092C11.732,30.758,13.118,32.147,13.118,33.85z"/>
		<path id="XMLID_74_" fill="#231F20" d="M10.027,3.127c-6.963,0-13.484,2.742-18.363,7.722c-0.355,0.362-0.549,0.843-0.544,1.353
			s0.208,0.985,0.571,1.339c0.358,0.353,0.831,0.545,1.332,0.545c0.007,0,0.013,0,0.02,0c0.509-0.006,0.985-0.209,1.341-0.571
			c4.156-4.243,9.711-6.578,15.643-6.578c5.931,0,11.485,2.335,15.642,6.576c0.361,0.369,0.844,0.573,1.361,0.573
			c0.501,0,0.974-0.194,1.332-0.545c0.363-0.354,0.566-0.83,0.571-1.339c0.005-0.509-0.188-0.99-0.544-1.353
			C23.509,5.87,16.989,3.127,10.027,3.127z M27.473,12.635c-0.242,0.238-0.661,0.233-0.897-0.009
			c-4.397-4.489-10.274-6.959-16.549-6.959c-6.275,0-12.153,2.47-16.551,6.959c-0.119,0.122-0.278,0.188-0.445,0.189
			c-0.172,0-0.329-0.062-0.451-0.18c-0.121-0.119-0.189-0.278-0.191-0.446c-0.001-0.171,0.064-0.331,0.182-0.451
			c4.638-4.734,10.836-7.34,17.456-7.34c6.618,0,12.817,2.606,17.455,7.34c0.119,0.12,0.183,0.279,0.181,0.451
			C27.662,12.357,27.593,12.516,27.473,12.635z"/>
		<path id="XMLID_71_" fill="#231F20" d="M22.178,20.865c0.498,0,0.97-0.189,1.327-0.538c0.753-0.732,0.77-1.939,0.039-2.692
			c-3.583-3.689-8.385-5.719-13.518-5.719c-5.135,0-9.936,2.03-13.519,5.719c-0.731,0.752-0.715,1.96,0.039,2.692
			c0.753,0.731,1.96,0.713,2.693-0.039c2.858-2.942,6.69-4.563,10.787-4.563c4.096,0,7.926,1.621,10.786,4.563
			C21.174,20.661,21.659,20.865,22.178,20.865z M-1.67,19.404c-0.244,0.251-0.646,0.257-0.898,0.014
			c-0.25-0.245-0.256-0.648-0.013-0.898c3.342-3.439,7.819-5.333,12.608-5.333c4.787,0,9.265,1.894,12.606,5.333
			c0.243,0.25,0.238,0.653-0.012,0.898c-0.245,0.237-0.663,0.23-0.897-0.014c-3.102-3.191-7.256-4.947-11.697-4.947
			C5.584,14.457,1.43,16.213-1.67,19.404z"/>
		<path id="XMLID_68_" fill="#231F20" d="M17.731,28.358c0.492,0,0.959-0.188,1.315-0.529c0.369-0.35,0.578-0.824,0.589-1.333
			c0.011-0.509-0.176-0.992-0.527-1.359c-2.396-2.506-5.62-3.886-9.081-3.886c-3.463,0-6.688,1.38-9.083,3.886
			c-0.351,0.367-0.538,0.85-0.526,1.359s0.221,0.983,0.588,1.333c0.356,0.341,0.823,0.529,1.316,0.529c0.012,0,0.029,0,0.043-0.002
			c0.509-0.011,0.982-0.22,1.333-0.588c1.67-1.748,3.918-2.71,6.329-2.71c2.41,0,4.658,0.962,6.327,2.71
			C16.711,28.141,17.212,28.358,17.731,28.358z M2.78,26.892c-0.116,0.122-0.275,0.192-0.444,0.195
			c-0.169,0.002-0.329-0.058-0.453-0.175c-0.122-0.116-0.192-0.275-0.196-0.444c-0.004-0.168,0.06-0.33,0.177-0.453
			c2.152-2.253,5.052-3.495,8.164-3.495c3.111,0,6.01,1.242,8.163,3.495c0.117,0.124,0.179,0.285,0.176,0.453
			c-0.003,0.169-0.074,0.328-0.196,0.444c-0.245,0.236-0.662,0.226-0.898-0.02c-1.909-2.001-4.483-3.103-7.244-3.103
			C7.264,23.789,4.692,24.891,2.78,26.892z"/>
	</g>
</g>
<g id="Capa_4" display="none">
	<g id="XMLID_9_" display="inline">
		<path id="XMLID_13_" fill="#231F20" d="M17.375,10.44c0.137-0.561,0.205-1.138,0.205-1.713c0-3.996-3.251-7.248-7.246-7.248
			c-3.998,0-7.249,3.252-7.249,7.248c0,0.575,0.069,1.152,0.206,1.713c0.192,1.175,0.459,2.124,0.791,2.819
			c0.712,1.496,3.709,6.435,5.085,8.684c-1.86,0.237-2.724,1.037-2.724,1.791c0,0.897,1.217,1.863,3.891,1.863
			c2.671,0,3.889-0.966,3.889-1.863c0-0.754-0.863-1.554-2.724-1.791c1.375-2.25,4.373-7.188,5.085-8.684
			C16.916,12.564,17.181,11.616,17.375,10.44z M13.102,23.735c-0.076,0.211-1.012,0.744-2.768,0.744
			c-1.779,0-2.716-0.544-2.771-0.736c0.05-0.186,0.813-0.643,2.257-0.733c0.017,0.027,0.03,0.048,0.037,0.059
			c0.102,0.165,0.282,0.266,0.478,0.266c0.193,0,0.373-0.101,0.475-0.266c0.007-0.011,0.019-0.032,0.038-0.059
			C12.271,23.099,13.035,23.545,13.102,23.735z M5.092,12.779c-0.283-0.595-0.525-1.475-0.699-2.541
			c-0.003-0.015-0.005-0.028-0.009-0.042C4.265,9.714,4.205,9.22,4.205,8.727c0-3.379,2.75-6.128,6.129-6.128
			c3.378,0,6.127,2.749,6.127,6.128c0,0.493-0.06,0.987-0.179,1.468c-0.003,0.014-0.006,0.028-0.008,0.042
			c-0.174,1.066-0.417,1.946-0.7,2.541c-0.72,1.51-4.001,6.9-5.24,8.925C9.093,19.679,5.813,14.289,5.092,12.779z"/>
		<path id="XMLID_10_" fill="#231F20" d="M10.334,4.629c-2.146,0-3.891,1.745-3.891,3.89c0,2.144,1.745,3.889,3.891,3.889
			c2.144,0,3.889-1.745,3.889-3.889C14.223,6.374,12.478,4.629,10.334,4.629z M7.563,8.519c0-1.528,1.243-2.771,2.771-2.771
			c1.526,0,2.77,1.243,2.77,2.771c0,1.527-1.243,2.77-2.77,2.77C8.806,11.288,7.563,10.045,7.563,8.519z"/>
	</g>
</g>
<g id="Capa_6" display="none">
	<g id="XMLID_23_" display="inline">
		<path id="XMLID_33_" fill="#231F20" d="M-4.446,33.689h32.455c0.594,0,1.076-0.481,1.076-1.075V9.733
			c0-0.595-0.482-1.076-1.076-1.076h-8.705V5.108c0-0.594-0.482-1.074-1.076-1.074H9.341c-0.594,0-1.074,0.48-1.074,1.074v3.549
			H4.364V8.245c0-0.595-0.483-1.075-1.076-1.075h-3.01c-0.594,0-1.074,0.48-1.074,1.075v0.412h-3.65
			c-0.594,0-1.076,0.481-1.076,1.076v22.881C-5.522,33.208-5.04,33.689-4.446,33.689z M10.417,6.183h6.736v2.474h-6.736V6.183z
			 M-3.373,10.807H9.341h8.887h8.707v20.731H-3.373V10.807z"/>
		<path id="XMLID_30_" fill="#231F20" d="M16.558,12.969c-4.573,0-8.291,3.72-8.291,8.291c0,4.572,3.718,8.291,8.291,8.291
			c4.57,0,8.291-3.719,8.291-8.291C24.848,16.689,21.127,12.969,16.558,12.969z M16.558,27.401c-3.387,0-6.141-2.755-6.141-6.141
			c0-3.387,2.754-6.141,6.141-6.141c3.385,0,6.14,2.754,6.14,6.141C22.698,24.646,19.942,27.401,16.558,27.401z"/>
		<path id="XMLID_27_" fill="#231F20" d="M16.558,16.839c-2.439,0-4.422,1.983-4.422,4.421s1.983,4.42,4.422,4.42
			c2.438,0,4.42-1.982,4.42-4.42S18.995,16.839,16.558,16.839z M16.558,23.531c-1.252,0-2.272-1.019-2.272-2.271
			s1.02-2.271,2.272-2.271s2.269,1.019,2.269,2.271S17.81,23.531,16.558,23.531z"/>
		<path id="XMLID_24_" fill="#231F20" d="M5.009,11.909h-6.021c-0.591,0-1.074,0.48-1.074,1.074v3.633
			c0,0.594,0.483,1.075,1.074,1.075h6.021c0.594,0,1.074-0.48,1.074-1.075v-3.633C6.083,12.389,5.603,11.909,5.009,11.909z
			 M3.933,15.54H0.064v-1.48h3.869V15.54z"/>
	</g>
</g>
<g id="Capa_7" display="none">
	<g id="XMLID_37_" display="inline">
		<path id="XMLID_66_" fill="#231F20" d="M1.131,11.026h17.787c0.336,0,0.607-0.273,0.607-0.609c0-0.337-0.271-0.61-0.607-0.61
			H1.131c-0.336,0-0.609,0.273-0.609,0.61C0.522,10.753,0.795,11.026,1.131,11.026z"/>
		<path id="XMLID_65_" fill="#231F20" d="M19.526,15.774c0-0.336-0.271-0.609-0.607-0.609H1.131c-0.336,0-0.609,0.273-0.609,0.609
			c0,0.336,0.273,0.609,0.609,0.609h17.787C19.254,16.384,19.526,16.11,19.526,15.774z"/>
		<path id="XMLID_56_" fill="#231F20" d="M32.801,14.274l-7.508-5.5V7.448c0-2.652-2.238-4.81-4.988-4.81h-3.389l-6.063-4.44
			c-0.322-0.235-0.756-0.235-1.076,0l-6.063,4.44H0.327c-2.752,0-4.988,2.157-4.988,4.81v1.326l-7.51,5.5
			c-0.234,0.171-0.373,0.443-0.375,0.734c0,0.051,0.01,0.102,0.018,0.151c-0.006,0.042-0.018,0.082-0.018,0.124v22.752
			c0,0.135,0.037,0.26,0.092,0.377c-0.094,0.208-0.119,0.443-0.041,0.668c0.125,0.37,0.473,0.619,0.861,0.619h43.898
			c0.391,0,0.738-0.25,0.863-0.621c0.076-0.223,0.051-0.459-0.043-0.666c0.055-0.117,0.092-0.242,0.092-0.377V15.284
			c0-0.041-0.012-0.08-0.018-0.121c0.01-0.054,0.018-0.107,0.018-0.162C33.172,14.713,33.034,14.444,32.801,14.274z M25.293,11.039
			l5.451,3.992l-5.256,4.056l-0.195,0.142V11.039z M10.315,0.068l3.51,2.57h-7.02L10.315,0.068z M-2.839,7.448
			c0-1.644,1.42-2.981,3.166-2.981h19.979c1.744,0,3.164,1.338,3.164,2.981v13.108l-7.176,5.223
			c-0.121,0.028-0.24,0.074-0.346,0.151l-5.576,4.225L4.53,25.92v-0.001l0,0l-7.369-5.362V7.448z M-4.662,11.038v8.018l-5.434-4.038
			L-4.662,11.038z M-10.722,17.078l13.166,9.583l-13.166,9.582V17.078z M-8.964,37.872l12.979-10.07l5.834,4.232
			c0.324,0.234,0.764,0.23,1.084-0.011l5.563-4.213l13.084,10.063H-8.964z M31.352,36.243l-13.164-9.582l13.164-9.583V36.243z"/>
	</g>
</g>
<g id="Capa_10" display="none">
	<g display="inline">
		
			<path fill-rule="evenodd" clip-rule="evenodd" fill="none" stroke="#000000" stroke-width="0.5" stroke-linecap="round" stroke-linejoin="round" stroke-miterlimit="10" d="
			M5.333,16.02c0.32,2.114,0.64,4.228,0.961,6.357c2.709,0,5.402,0,8.113,0c0.144-0.968,0.282-1.957,0.438-2.943
			c0.153-0.965,0.326-1.927,0.483-2.892c0.028-0.172,0.025-0.348,0.037-0.522"/>
		
			<path fill-rule="evenodd" clip-rule="evenodd" fill="none" stroke="#000000" stroke-width="0.5" stroke-linecap="round" stroke-linejoin="round" stroke-miterlimit="10" d="
			M9.862,3.758C9.765,4.119,9.52,4.411,9.404,4.767C9.143,5.573,9.02,6.396,8.94,7.24C8.865,8.026,8.921,8.8,8.97,9.575
			c0.042,0.664,0.156,1.327,0.246,1.989c0.106,0.784,0.337,1.543,0.403,2.331"/>
		
			<path fill-rule="evenodd" clip-rule="evenodd" fill="none" stroke="#000000" stroke-width="0.5" stroke-linecap="round" stroke-linejoin="round" stroke-miterlimit="10" d="
			M10.106,3.758c0,3.378,0,6.757,0,10.136"/>
		
			<path fill-rule="evenodd" clip-rule="evenodd" fill="none" stroke="#000000" stroke-width="0.5" stroke-linecap="round" stroke-linejoin="round" stroke-miterlimit="10" d="
			M10.385,3.758c0.115,0.487,0.413,0.897,0.537,1.39c0.168,0.669,0.297,1.34,0.328,2.024c0.028,0.625,0.051,1.251,0.015,1.881
			c-0.05,0.877-0.148,1.745-0.275,2.614c-0.11,0.748-0.276,1.483-0.396,2.228"/>
		
			<path fill-rule="evenodd" clip-rule="evenodd" fill="none" stroke="#000000" stroke-width="0.5" stroke-linecap="round" stroke-linejoin="round" stroke-miterlimit="10" d="
			M15.331,15.95c-0.111-0.056-0.231-0.034-0.348-0.034c-3.089-0.001-6.177,0-9.266,0c-0.477,0-0.953,0-1.445,0
			c0-0.662,0-1.289,0-1.951c4.058,0,8.099,0,12.156,0c0,0.662,0,1.289,0,1.92c-0.359,0.099-0.727-0.064-1.063,0.1"/>
		
			<path fill-rule="evenodd" clip-rule="evenodd" fill="none" stroke="#000000" stroke-width="0.5" stroke-linecap="round" stroke-linejoin="round" stroke-miterlimit="10" d="
			M4.463,8.147c0.747,1.294,2.038,1.774,3.345,2.226c0.072,0.025,0.162,0.003,0.243,0.003"/>
		
			<path fill-rule="evenodd" clip-rule="evenodd" fill="none" stroke="#000000" stroke-width="0.5" stroke-linecap="round" stroke-linejoin="round" stroke-miterlimit="10" d="
			M11.464,13.895c0.129-0.676,0.32-1.338,0.418-2.021c0.082-0.569,0.17-1.137,0.24-1.707c0.027-0.219,0.073-0.397,0.28-0.527
			c0.381-0.24,0.73-0.533,1.122-0.755c0.423-0.24,0.882-0.396,1.389-0.287c0.535,0.114,0.67,0.472,0.349,0.908
			c-0.539,0.731-1.34,1.072-2.129,1.42c-0.354,0.156-0.71,0.336-1.111,0.355"/>
		
			<path fill-rule="evenodd" clip-rule="evenodd" fill="none" stroke="#000000" stroke-width="0.5" stroke-linecap="round" stroke-linejoin="round" stroke-miterlimit="10" d="
			M4.672,8.008c1.045,0.627,2.089,1.255,3.136,1.879c0.047,0.029,0.115,0.025,0.172,0.037"/>
		
			<path fill-rule="evenodd" clip-rule="evenodd" fill="none" stroke="#000000" stroke-width="0.5" stroke-linecap="round" stroke-linejoin="round" stroke-miterlimit="10" d="
			M15.366,9.053c-0.64-0.108-1.195,0.151-1.74,0.422c-0.421,0.209-0.818,0.468-1.182,0.767c-0.093,0.077-0.174,0.108-0.283,0.1"/>
		
			<path fill-rule="evenodd" clip-rule="evenodd" fill="none" stroke="#000000" stroke-width="0.5" stroke-linecap="round" stroke-linejoin="round" stroke-miterlimit="10" d="
			M15.226,9.192c-0.545,0.313-1.091,0.627-1.637,0.94c-0.429,0.246-0.884,0.444-1.291,0.728c-0.053,0.037-0.137,0.027-0.207,0.038"
			/>
		
			<path fill-rule="evenodd" clip-rule="evenodd" fill="none" stroke="#000000" stroke-width="0.5" stroke-linecap="round" stroke-linejoin="round" stroke-miterlimit="10" d="
			M4.811,7.729C5.36,7.907,5.937,7.974,6.456,8.274C6.91,8.537,7.313,8.86,7.735,9.161C7.793,9.202,7.84,9.238,7.912,9.227"/>
		
			<path fill-rule="evenodd" clip-rule="evenodd" fill="none" stroke="#000000" stroke-width="0.5" stroke-linecap="round" stroke-linejoin="round" stroke-miterlimit="10" d="
			M15.436,9.053c0.381,0.271,0.42,0.657,0.105,1.011c-0.396,0.443-0.896,0.725-1.426,0.981c-0.643,0.311-1.313,0.539-1.989,0.757
			c-0.052,0.017-0.115,0.002-0.173,0.002"/>
		
			<path fill-rule="evenodd" clip-rule="evenodd" fill="none" stroke="#000000" stroke-width="0.5" stroke-linecap="round" stroke-linejoin="round" stroke-miterlimit="10" d="
			M12.266,9.715c-0.157-0.291-0.014-0.585,0.009-0.87c0.1-1.197,0.054-2.394-0.243-3.547c-0.157-0.612-0.481-1.276-1.164-1.489
			C9.952,3.524,9.012,3.616,8.431,4.662C8.092,5.273,7.978,5.939,7.916,6.615C7.827,7.581,7.902,8.542,8.004,9.507
			c0.103,0.974,0.262,1.935,0.466,2.89c0.107,0.501,0.231,0.999,0.348,1.498"/>
		
			<path fill-rule="evenodd" clip-rule="evenodd" fill="none" stroke="#000000" stroke-width="0.5" stroke-linecap="round" stroke-linejoin="round" stroke-miterlimit="10" d="
			M8.085,10.934c-1.231-0.278-2.392-0.72-3.375-1.537c-0.325-0.27-0.602-0.634-0.408-1.07c0.229-0.516,0.589-0.937,1.241-0.949
			c0.779-0.015,1.388,0.378,1.983,0.806c0.1,0.072,0.174,0.179,0.315,0.172"/>
		
			<path fill-rule="evenodd" clip-rule="evenodd" fill="none" stroke="#000000" stroke-width="0.5" stroke-linecap="round" stroke-linejoin="round" stroke-miterlimit="10" d="
			M8.643,4.176C8.491,4.083,8.375,3.905,8.156,3.967"/>
		
			<path fill-rule="evenodd" clip-rule="evenodd" fill="none" stroke="#000000" stroke-width="0.5" stroke-linecap="round" stroke-linejoin="round" stroke-miterlimit="10" d="
			M5.229,6.998c0.188,0.051,0.083,0.249,0.174,0.349"/>
		
			<path fill-rule="evenodd" clip-rule="evenodd" fill="none" stroke="#000000" stroke-width="0.5" stroke-linecap="round" stroke-linejoin="round" stroke-miterlimit="10" d="
			M14.6,8.112c0,0.139,0,0.279,0,0.418"/>
		
			<path fill-rule="evenodd" clip-rule="evenodd" fill="none" stroke="#000000" stroke-width="0.5" stroke-linecap="round" stroke-linejoin="round" stroke-miterlimit="10" d="
			M12.44,11.77c0.011,0.127,0.023,0.255,0.035,0.383"/>
		
			<path fill-rule="evenodd" clip-rule="evenodd" fill="none" stroke="#000000" stroke-width="0.5" stroke-linecap="round" stroke-linejoin="round" stroke-miterlimit="10" d="
			M13.485,8.391c-0.011,0.148,0.121,0.245,0.139,0.383"/>
		
			<path fill-rule="evenodd" clip-rule="evenodd" fill="none" stroke="#000000" stroke-width="0.5" stroke-linecap="round" stroke-linejoin="round" stroke-miterlimit="10" d="
			M14.808,10.829c0.116,0.063,0.091,0.249,0.244,0.279"/>
	</g>
	
		<path display="inline" fill-rule="evenodd" clip-rule="evenodd" fill="none" stroke="#000000" stroke-width="2" stroke-linecap="round" stroke-linejoin="round" stroke-miterlimit="10" d="
		M550.579,628.203c1.752,11.023,3.48,22.055,5.188,33.082c1.52,9.813,3.277,19.605,4.363,29.486c0.193,1.76,0.736,2.502,2.535,2.5
		c26.66-0.025,53.32-0.016,79.98-0.031c0.119,0,0.236-0.223,0.717-0.703c2.09-14.063,4.133-28.551,6.438-42.998
		c1.133-7.102,2.621-14.146,3.154-21.336"/>
	
		<path display="inline" fill-rule="evenodd" clip-rule="evenodd" fill="none" stroke="#000000" stroke-width="2" stroke-linecap="round" stroke-linejoin="round" stroke-miterlimit="10" d="
		M620.961,606.519c1.146,1.102,2.582,0.693,3.91,0.697c11.73,0.025,23.461,0.014,35.191,0.014c1.197,0,2.393,0,3.732,0
		c0,6.754,0,13.152,0,19.906c-4.912,0-9.654,0-14.396,0c-31.756,0-63.51,0-95.266,0c-3.91,0-7.822-0.051-11.73,0.023
		c-1.82,0.033-2.896-0.408-2.867-2.512c0.07-4.975,0.084-9.953-0.004-14.928c-0.043-2.453,1.459-2.504,3.227-2.5
		c9.479,0.021,18.959,0.01,28.438,0.01c14.219,0,28.438-0.047,42.656,0.035c3.34,0.02,6.063-0.736,8.584-3.178
		c5.711-5.529,10.957-11.299,13.822-18.893c3.469-9.193,3.896-18.566,1.738-28.08c-0.684-3.02-1.996-5.773-3.367-8.613
		c-6.938-14.371-18.572-21.82-33.943-23.242c-10.355-0.959-19.848,2.6-27.668,9.506c-10.273,9.072-15.42,20.729-15.273,34.43
		c0.137,12.889,5.074,23.863,14.547,32.672c1.482,1.377,3.094,2.596,4.236,4.297"/>
	
		<path display="inline" fill-rule="evenodd" clip-rule="evenodd" fill="none" stroke="#000000" stroke-width="2" stroke-linecap="round" stroke-linejoin="round" stroke-miterlimit="10" d="
		M598.567,531.16c0,23.936,0,47.869,0,71.805"/>
	
		<path display="inline" fill-rule="evenodd" clip-rule="evenodd" fill="none" stroke="#000000" stroke-width="2" stroke-linecap="round" stroke-linejoin="round" stroke-miterlimit="10" d="
		M583.637,536.847c-2.715,8.35-5.08,16.838-5.592,25.6c-0.637,10.916-0.064,21.814,3.453,32.344c0.748,2.24,1.428,4.5,2.139,6.752"
		/>
	
		<path display="inline" fill-rule="evenodd" clip-rule="evenodd" fill="none" stroke="#000000" stroke-width="2" stroke-linecap="round" stroke-linejoin="round" stroke-miterlimit="10" d="
		M616.34,537.558c3.398,10.762,5.926,21.719,5.617,33.057c-0.271,9.979-1.365,19.893-5.588,29.164
		c-0.225,0.49-0.029,1.172-0.029,1.764"/>
	
		<path display="inline" fill-rule="evenodd" clip-rule="evenodd" fill="none" stroke="#000000" stroke-width="2" stroke-linecap="round" stroke-linejoin="round" stroke-miterlimit="10" d="
		M637.668,552.843c2.666,0.088,4.734,2.018,7.461,2.193c8.289,0.535,13.139-3.637,16.285-10.047
		c3.031-6.178,1.717-12.357-2.145-17.682c-3.828-5.279-9.318-7.355-15.918-6.117c-5.516,1.037-11.332,6.336-12.398,13.885
		c-0.225,1.596-0.551,3.121-1.105,4.615"/>
	
		<path display="inline" fill-rule="evenodd" clip-rule="evenodd" fill="none" stroke="#000000" stroke-width="2" stroke-linecap="round" stroke-linejoin="round" stroke-miterlimit="10" d="
		M654.02,526.894c-8.404,1.416-15.334,5.348-20.617,12.086"/>
	
		<path display="inline" fill-rule="evenodd" clip-rule="evenodd" fill="none" stroke="#000000" stroke-width="2" stroke-linecap="round" stroke-linejoin="round" stroke-miterlimit="10" d="
		M658.997,538.98c-4.975,6.195-11.619,9.572-19.195,11.375"/>
	
		<path display="inline" fill-rule="evenodd" clip-rule="evenodd" fill="none" stroke="#000000" stroke-width="2" stroke-linecap="round" stroke-linejoin="round" stroke-miterlimit="10" d="
		M655.442,533.292c-6.162,3.555-12.322,7.109-18.484,10.664"/>
	
		<path display="inline" fill-rule="evenodd" clip-rule="evenodd" fill="none" stroke="#000000" stroke-width="2" stroke-linecap="round" stroke-linejoin="round" stroke-miterlimit="10" d="
		M644.778,568.839c-1.498,0.67-3.08,0.238-4.621,0.355"/>
	
		<path display="inline" fill-rule="evenodd" clip-rule="evenodd" fill="none" stroke="#000000" stroke-width="2" stroke-linecap="round" stroke-linejoin="round" stroke-miterlimit="10" d="
		M557.333,564.574c-1.422-0.119-2.844-0.236-4.266-0.355"/>
	
		<path display="inline" fill-rule="evenodd" clip-rule="evenodd" fill="none" stroke="#000000" stroke-width="2" stroke-linecap="round" stroke-linejoin="round" stroke-miterlimit="10" d="
		M561.243,540.046c1.303,0.947,2.607,1.896,3.91,2.844"/>
	
		<path display="inline" fill-rule="evenodd" clip-rule="evenodd" fill="none" stroke="#000000" stroke-width="2" stroke-linecap="round" stroke-linejoin="round" stroke-miterlimit="10" d="
		M659.708,520.851c-1.648,0.391-2.9,1.203-3.199,3.021"/>
	
		<path display="inline" fill-rule="evenodd" clip-rule="evenodd" fill="none" stroke="#000000" stroke-width="2" stroke-linecap="round" stroke-linejoin="round" stroke-miterlimit="10" d="
		M615.274,524.05c0.111,1.518-1.232,2.504-1.422,3.91"/>
</g>
<g id="Capa_11">
	
		<path fill-rule="evenodd" clip-rule="evenodd" fill="none" stroke="#000000" stroke-width="0.5" stroke-linecap="round" stroke-linejoin="round" stroke-miterlimit="10" d="
		M4.696,15.542c0.194,1.22,0.385,2.44,0.574,3.661c0.168,1.086,0.363,2.169,0.483,3.263c0.021,0.195,0.082,0.277,0.281,0.277
		c2.95-0.003,5.9-0.002,8.85-0.003c0.014,0,0.026-0.024,0.08-0.078c0.231-1.556,0.457-3.16,0.712-4.758
		c0.125-0.786,0.29-1.565,0.349-2.361"/>
	
		<path fill-rule="evenodd" clip-rule="evenodd" fill="none" stroke="#000000" stroke-width="0.5" stroke-linecap="round" stroke-linejoin="round" stroke-miterlimit="10" d="
		M12.484,13.142c0.127,0.122,0.286,0.077,0.433,0.077c1.298,0.003,2.597,0.002,3.894,0.002c0.133,0,0.265,0,0.413,0
		c0,0.748,0,1.456,0,2.203c-0.544,0-1.068,0-1.593,0c-3.514,0-7.027,0-10.542,0c-0.433,0-0.865-0.006-1.298,0.002
		c-0.201,0.004-0.32-0.045-0.317-0.277c0.008-0.551,0.01-1.102,0-1.652c-0.005-0.271,0.161-0.277,0.357-0.277
		c1.048,0.003,2.097,0.001,3.146,0.001c1.574,0,3.146-0.005,4.72,0.004c0.37,0.002,0.671-0.082,0.95-0.352
		c0.632-0.612,1.212-1.25,1.53-2.091c0.383-1.018,0.431-2.054,0.192-3.107c-0.076-0.334-0.221-0.638-0.373-0.953
		c-0.768-1.59-2.055-2.415-3.756-2.572C9.095,4.044,8.044,4.438,7.179,5.202C6.042,6.207,5.473,7.496,5.49,9.012
		c0.015,1.426,0.561,2.641,1.609,3.615c0.164,0.153,0.342,0.288,0.469,0.476"/>
	
		<path fill-rule="evenodd" clip-rule="evenodd" fill="none" stroke="#000000" stroke-width="0.5" stroke-linecap="round" stroke-linejoin="round" stroke-miterlimit="10" d="
		M10.007,4.804c0,2.648,0,5.296,0,7.945"/>
	
		<path fill-rule="evenodd" clip-rule="evenodd" fill="none" stroke="#000000" stroke-width="0.5" stroke-linecap="round" stroke-linejoin="round" stroke-miterlimit="10" d="
		M8.354,5.433c-0.3,0.924-0.562,1.863-0.619,2.833c-0.071,1.208-0.007,2.414,0.382,3.58c0.083,0.247,0.158,0.498,0.237,0.747"/>
	
		<path fill-rule="evenodd" clip-rule="evenodd" fill="none" stroke="#000000" stroke-width="0.5" stroke-linecap="round" stroke-linejoin="round" stroke-miterlimit="10" d="
		M11.973,5.512c0.376,1.19,0.656,2.403,0.621,3.658c-0.029,1.104-0.151,2.202-0.618,3.227c-0.024,0.055-0.003,0.13-0.003,0.195"/>
	
		<path fill-rule="evenodd" clip-rule="evenodd" fill="none" stroke="#000000" stroke-width="0.5" stroke-linecap="round" stroke-linejoin="round" stroke-miterlimit="10" d="
		M14.333,7.203c0.295,0.01,0.523,0.223,0.825,0.242c0.918,0.06,1.454-0.402,1.803-1.111c0.335-0.684,0.189-1.368-0.238-1.957
		c-0.423-0.584-1.031-0.814-1.762-0.677c-0.61,0.114-1.254,0.701-1.372,1.536c-0.025,0.177-0.062,0.345-0.123,0.511"/>
	
		<path fill-rule="evenodd" clip-rule="evenodd" fill="none" stroke="#000000" stroke-width="0.5" stroke-linecap="round" stroke-linejoin="round" stroke-miterlimit="10" d="
		M16.143,4.332c-0.931,0.157-1.697,0.592-2.282,1.337"/>
	
		<path fill-rule="evenodd" clip-rule="evenodd" fill="none" stroke="#000000" stroke-width="0.5" stroke-linecap="round" stroke-linejoin="round" stroke-miterlimit="10" d="
		M16.694,5.669c-0.551,0.686-1.286,1.059-2.125,1.259"/>
	
		<path fill-rule="evenodd" clip-rule="evenodd" fill="none" stroke="#000000" stroke-width="0.5" stroke-linecap="round" stroke-linejoin="round" stroke-miterlimit="10" d="
		M16.3,5.039c-0.682,0.394-1.364,0.788-2.046,1.181"/>
	
		<path fill-rule="evenodd" clip-rule="evenodd" fill="none" stroke="#000000" stroke-width="0.5" stroke-linecap="round" stroke-linejoin="round" stroke-miterlimit="10" d="
		M15.12,8.973c-0.166,0.074-0.341,0.026-0.511,0.039"/>
	
		<path fill-rule="evenodd" clip-rule="evenodd" fill="none" stroke="#000000" stroke-width="0.5" stroke-linecap="round" stroke-linejoin="round" stroke-miterlimit="10" d="
		M5.444,8.501c-0.158-0.014-0.314-0.027-0.473-0.04"/>
	
		<path fill-rule="evenodd" clip-rule="evenodd" fill="none" stroke="#000000" stroke-width="0.5" stroke-linecap="round" stroke-linejoin="round" stroke-miterlimit="10" d="
		M5.876,5.787c0.144,0.104,0.288,0.209,0.433,0.314"/>
	
		<path fill-rule="evenodd" clip-rule="evenodd" fill="none" stroke="#000000" stroke-width="0.5" stroke-linecap="round" stroke-linejoin="round" stroke-miterlimit="10" d="
		M16.772,3.663c-0.183,0.044-0.321,0.133-0.354,0.334"/>
	
		<path fill-rule="evenodd" clip-rule="evenodd" fill="none" stroke="#000000" stroke-width="0.5" stroke-linecap="round" stroke-linejoin="round" stroke-miterlimit="10" d="
		M11.855,4.017c0.013,0.168-0.136,0.277-0.157,0.432"/>
</g>
</svg>
