<?xml version="1.0" encoding="utf-8"?>
<!-- Generator: Adobe Illustrator 16.0.3, SVG Export Plug-In . SVG Version: 6.00 Build 0)  -->
<!DOCTYPE svg PUBLIC "-//W3C//DTD SVG 1.1//EN" "http://www.w3.org/Graphics/SVG/1.1/DTD/svg11.dtd">
<svg version="1.1" id="Capa_2" xmlns="http://www.w3.org/2000/svg" xmlns:xlink="http://www.w3.org/1999/xlink" x="0px" y="0px"
	 width="11.042px" height="10.609px" viewBox="0 0 11.042 10.609" enable-background="new 0 0 11.042 10.609" xml:space="preserve">
<g>
	<g>
		<g>
			<g>
				<path fill="#FFFFFF" d="M7.663,10.406H3.377c-1.561,0-2.833-1.271-2.833-2.833V3.286c0-1.561,1.272-2.833,2.833-2.833h4.286
					c1.566,0,2.836,1.272,2.836,2.833v4.287C10.499,9.136,9.227,10.406,7.663,10.406z M3.377,1.304c-1.092,0-1.98,0.889-1.98,1.981
					v4.287c0,1.094,0.889,1.979,1.98,1.979h4.286c1.096,0,1.98-0.885,1.98-1.979V3.286c0-1.093-0.885-1.981-1.98-1.981H3.377z"/>
			</g>
			<g>
				<path fill="#FFFFFF" d="M5.522,7.978c-1.407,0-2.551-1.141-2.551-2.549c0-1.406,1.144-2.549,2.551-2.549
					c1.406,0,2.546,1.143,2.546,2.549C8.069,6.838,6.928,7.978,5.522,7.978z M5.522,3.733c-0.938,0-1.698,0.761-1.698,1.696
					c0,0.937,0.76,1.696,1.698,1.696c0.936,0,1.695-0.76,1.695-1.696C7.217,4.494,6.458,3.733,5.522,3.733z"/>
			</g>
			<g>
				<path fill="#FFFFFF" d="M8.793,2.735c0,0.34-0.271,0.613-0.615,0.613c-0.338,0-0.613-0.273-0.613-0.613
					c0-0.338,0.275-0.612,0.613-0.612C8.522,2.122,8.793,2.396,8.793,2.735z"/>
			</g>
		</g>
	</g>
</g>
</svg>
