<?xml version="1.0" encoding="utf-8"?>
<!-- Generator: Adobe Illustrator 16.0.3, SVG Export Plug-In . SVG Version: 6.00 Build 0)  -->
<!DOCTYPE svg PUBLIC "-//W3C//DTD SVG 1.1//EN" "http://www.w3.org/Graphics/SVG/1.1/DTD/svg11.dtd">
<svg version="1.1" id="Capa_2" xmlns="http://www.w3.org/2000/svg" xmlns:xlink="http://www.w3.org/1999/xlink" x="0px" y="0px"
	 width="11.042px" height="10.609px" viewBox="34.958 24.849 11.042 10.609" enable-background="new 34.958 24.849 11.042 10.609"
	 xml:space="preserve">
<g>
	<g>
		<g>
			<g>
				<path fill="#FFFFFF" d="M42.569,35.26h-4.393c-1.601,0-2.905-1.303-2.905-2.905v-4.394c0-1.601,1.304-2.905,2.905-2.905h4.393
					c1.604,0,2.906,1.304,2.906,2.905v4.394C45.475,33.958,44.172,35.26,42.569,35.26z M38.176,25.929
					c-1.12,0-2.031,0.912-2.031,2.032v4.394c0,1.121,0.911,2.029,2.031,2.029h4.393c1.123,0,2.029-0.908,2.029-2.029v-4.394
					c0-1.12-0.906-2.032-2.029-2.032H38.176z"/>
			</g>
			<g>
				<path fill="#FFFFFF" d="M40.374,32.771c-1.442,0-2.615-1.17-2.615-2.613c0-1.441,1.173-2.613,2.615-2.613
					c1.441,0,2.611,1.172,2.611,2.613C42.985,31.601,41.815,32.771,40.374,32.771z M40.374,28.419c-0.96,0-1.74,0.78-1.74,1.738
					c0,0.96,0.779,1.739,1.74,1.739c0.959,0,1.738-0.779,1.738-1.739C42.112,29.199,41.333,28.419,40.374,28.419z"/>
			</g>
			<g>
				<path fill="#FFFFFF" d="M43.727,27.395c0,0.349-0.279,0.629-0.631,0.629c-0.344,0-0.627-0.28-0.627-0.629
					c0-0.346,0.283-0.627,0.627-0.627C43.448,26.767,43.727,27.049,43.727,27.395z"/>
			</g>
		</g>
	</g>
</g>
</svg>
